<?xml version="1.0" encoding="UTF-8" standalone="no"?>
<!-- Created with Inkscape (http://www.inkscape.org/) -->

<svg
   width="111.47744mm"
   height="88.090286mm"
   viewBox="0 0 111.47744 88.090286"
   version="1.1"
   id="svg1"
   inkscape:export-filename="hyper-derp.png"
   inkscape:export-xdpi="96"
   inkscape:export-ydpi="96"
   inkscape:version="1.4 (e7c3feb100, 2024-10-09)"
   sodipodi:docname="hyper-derp.inkscape.svg"
   xmlns:inkscape="http://www.inkscape.org/namespaces/inkscape"
   xmlns:sodipodi="http://sodipodi.sourceforge.net/DTD/sodipodi-0.dtd"
   xmlns="http://www.w3.org/2000/svg"
   xmlns:svg="http://www.w3.org/2000/svg">
  <sodipodi:namedview
     id="namedview1"
     pagecolor="#505050"
     bordercolor="#eeeeee"
     borderopacity="1"
     inkscape:showpageshadow="0"
     inkscape:pageopacity="0"
     inkscape:pagecheckerboard="0"
     inkscape:deskcolor="#505050"
     inkscape:document-units="mm"
     inkscape:zoom="2.1273569"
     inkscape:cx="201.89372"
     inkscape:cy="223.28176"
     inkscape:window-width="1680"
     inkscape:window-height="1013"
     inkscape:window-x="0"
     inkscape:window-y="0"
     inkscape:window-maximized="1"
     inkscape:current-layer="layer1" />
  <defs
     id="defs1" />
  <g
     inkscape:label="Layer 1"
     inkscape:groupmode="layer"
     id="layer1"
     transform="translate(-100.16158,-36.932566)">
    <text
       xml:space="preserve"
       style="font-weight:bold;font-size:25.4px;font-family:'FiraCode Nerd Font';-inkscape-font-specification:'FiraCode Nerd Font Bold';text-align:start;writing-mode:lr-tb;direction:ltr;text-anchor:start;fill:#ffef21;fill-opacity:1;stroke:none;stroke-width:1;stroke-opacity:1"
       x="217.07112"
       y="98.372269"
       id="text35"><tspan
         sodipodi:role="line"
         id="tspan35"
         style="fill:#ffef21;stroke:none;stroke-width:1;fill-opacity:1"
         x="217.07112"
         y="98.372269">DERP</tspan></text>
    <path
       style="fill:#ececec;stroke:#000000;stroke-width:1;stroke-opacity:1"
       d="m 132.95351,104.34799 c -5.66803,-1.90524 -8.96085,-3.39304 -10.5716,-7.462317 2.3566,-25.774666 0.81792,-31.455047 0.74623,-31.466076 0,0 0.99497,-4.10427 12.18844,-8.706031 7.91373,-3.253421 -2.36307,47.634424 -2.36307,47.634424 z"
       id="path11"
       sodipodi:nodetypes="cccsc" />
    <path
       style="fill:#f2f2f2;stroke:#373137;stroke-width:1;stroke-opacity:1"
       d="m 135.08227,56.811944 c 0,0 27.61447,-14.950511 56.63605,-2.28655 13.5434,32.715237 -1.23122,48.193416 -0.52766,48.017526 0.70355,-0.17589 -36.23301,12.83985 -57.69139,1.75888 -6.50787,-24.272593 1.583,-47.489856 1.583,-47.489856 z"
       id="path8"
       sodipodi:nodetypes="ccccc" />
    <path
       style="fill:#f9f9f9;stroke:#000000;stroke-width:1;stroke-opacity:1"
       d="m 154.2211,63.554019 c -13.1218,-25.701633 -40.30097,11.597244 -15.29774,19.153266 2.14149,1.529636 16.68592,-8.016523 15.29774,-19.153266 z"
       id="path9"
       sodipodi:nodetypes="ccc" />
    <path
       style="fill:#000000;fill-opacity:1;stroke:#000000;stroke-width:1;stroke-opacity:1"
       d="m 130.09296,66.787688 c 9.09259,9.945171 16.65664,-12.555579 5.59674,-9.949749 -3.01454,3.316583 -7.28538,6.633166 -5.59674,9.949749 z"
       id="path10"
       sodipodi:nodetypes="ccc" />
    <path
       style="fill:#f9f9f9;stroke:#000000;stroke-width:1;stroke-opacity:1"
       d="m 176.60925,60.985388 c 13.1218,-25.701633 40.30097,11.597244 15.29774,19.153266 -2.14149,1.529636 -16.68592,-8.016523 -15.29774,-19.153266 z"
       id="path9-5"
       sodipodi:nodetypes="ccc" />
    <path
       style="fill:#000000;fill-opacity:1;stroke:#000000;stroke-width:1;stroke-opacity:1"
       d="m 195.63197,67.500371 c 12.90629,-3.874195 -4.08054,-20.455693 -6.53397,-9.360991 1.67924,4.155396 2.81314,9.442556 6.53397,9.360991 z"
       id="path10-2"
       sodipodi:nodetypes="ccc" />
    <path
       style="fill:none;fill-opacity:1;stroke:#000000;stroke-width:1;stroke-opacity:1"
       d="m 164.91708,85.816582 c 0,0 -21.26759,15.297738 -7.9598,13.929648 6.70244,-0.689036 10.10222,-1.236634 11.55473,-2.143791 13.75404,-8.590063 1.00683,4.631231 1.00683,4.631231"
       id="path12"
       sodipodi:nodetypes="cssc" />
    <path
       style="fill:none;fill-opacity:1;stroke:#000000;stroke-width:1;stroke-opacity:1"
       d="m 130.83919,44.898242 c 0,0 41.66458,-14.67588 67.40955,-2.860554"
       id="path15"
       sodipodi:nodetypes="cc" />
    <path
       style="fill:none;fill-opacity:1;stroke:#000000;stroke-width:1;stroke-opacity:1"
       d="m 198.49749,42.037689 -7.83543,10.695978"
       id="path16"
       sodipodi:nodetypes="cc" />
    <path
       style="fill:none;fill-opacity:1;stroke:#000000;stroke-width:1;stroke-opacity:1"
       d="m 135.31658,49.748744 1.36809,3.233668"
       id="path17" />
    <path
       style="fill:none;fill-opacity:1;stroke:#000000;stroke-width:1;stroke-opacity:1"
       d="m 123.75,65.792714 -12.56156,-16.04397 c 0,0 10.57161,-7.337941 19.27764,-5.223619"
       id="path18"
       sodipodi:nodetypes="ccc" />
    <path
       style="fill:none;fill-opacity:1;stroke:#000000;stroke-width:1;stroke-opacity:1"
       d="m 132.82915,105.46734 c -1.16832,4.73579 0.24548,10.69626 -7.9598,16.04396 0,0 62.18592,8.08418 77.48366,-2.23869"
       id="path19"
       sodipodi:nodetypes="ccc" />
    <path
       style="fill:none;fill-opacity:1;stroke:#000000;stroke-width:1;stroke-opacity:1"
       d="m 191.7814,103.8505 9.94976,15.9196"
       id="path20"
       sodipodi:nodetypes="cc" />
    <path
       style="fill:none;fill-opacity:1;stroke:#000000;stroke-width:1;stroke-opacity:1"
       d="m 122.63065,98.626891 c -0.21927,5.366249 -12.80209,15.842389 -20.52135,19.650749 0,0 5.96984,2.36306 20.7701,3.35804"
       id="path21"
       sodipodi:nodetypes="ccc" />
    <path
       style="fill:none;fill-opacity:1;stroke:#000000;stroke-width:1;stroke-opacity:1"
       d="M 132.82914,44.400753 C 130.49548,38.476844 105.62113,89.144073 124.6206,123.75"
       id="path22"
       sodipodi:nodetypes="cc" />
    <path
       style="fill:none;fill-opacity:1;stroke:#000000;stroke-width:1;stroke-opacity:1"
       d="m 198.62185,42.410803 c 10.52135,10.025728 20.07726,68.040017 3.73116,77.110547"
       id="path23"
       sodipodi:nodetypes="cc" />
    <path
       style="fill:none;fill-opacity:1;stroke:#000000;stroke-width:1;stroke-opacity:1"
       d="m 110.44221,49.126883 c 0,0 -15.670856,51.614317 -7.33794,68.777637"
       id="path24" />
    <path
       style="fill:#000000;fill-opacity:1;stroke:none;stroke-width:1;stroke-opacity:1"
       d="m 163.23806,87.495601 c -1.28346,-0.154017 -1.61042,9.690096 4.74122,10.019479 -2.61665,1.119578 -13.25055,2.004393 -13.25055,2.004393 -1.67563,0.07665 -2.27869,-1.128638 -2.00009,-2.136308 2.64861,-5.574605 6.6827,-7.454602 10.50942,-9.887564 z"
       id="path25"
       sodipodi:nodetypes="ccccc" />
    <path
       style="fill:#000000;fill-opacity:1;stroke:#000000;stroke-width:1;stroke-opacity:1"
       d="m 131.46105,44.649498 6.46734,10.322864"
       id="path26" />
    <path
       style="fill:none;fill-opacity:1;stroke:#000000;stroke-width:1;stroke-opacity:1"
       d="m 176.15279,49.618496 c 0,0 6.34296,-11.069096 1.24371,-8.457287"
       id="path27"
       sodipodi:nodetypes="cc" />
    <path
       style="fill:none;fill-opacity:1;stroke:#000000;stroke-width:1;stroke-opacity:1"
       d="m 196.67414,41.658697 -30.71985,1.989949 -38.4309,5.845478 -17.90955,-0.373116"
       id="path28" />
    <path
       style="fill:#ececec;fill-opacity:1;stroke:#000000;stroke-width:1;stroke-opacity:1"
       d="m 128.14525,49.618496 6.71608,7.337939"
       id="path29" />
    <path
       style="fill:#ff21ed;fill-opacity:1;stroke:none;stroke-width:1;stroke-opacity:1"
       d="m 126.89661,49.772417 7.38731,7.5632 0.70356,-0.175889 -8.09087,-8.794418 z"
       id="path52" />
    <path
       style="fill:none;fill-opacity:1;stroke:#fd25fb;stroke-width:1;stroke-opacity:1"
       d="m 218.19047,56.334576 3.85553,21.391958 -1.86558,-10.198491 c 0,0 7.9598,-12.437186 11.56659,-3.233669 3.60678,9.203518 -1.86558,14.178391 -1.86558,14.178391"
       id="path30" />
    <path
       style="fill:none;fill-opacity:1;stroke:#fd25fb;stroke-width:1;stroke-opacity:1"
       d="m 234.73193,66.906185 1.11935,9.949749 -9.32789,16.665828 16.66583,-27.113065"
       id="path31" />
    <path
       style="fill:none;fill-opacity:1;stroke:#fd25fb;stroke-width:1;stroke-opacity:1"
       d="m 246.17414,66.408697 -1.24372,33.331657 z"
       id="path32" />
    <path
       style="fill:none;fill-opacity:1;stroke:#fd25fb;stroke-width:1;stroke-opacity:1"
       d="m 246.54726,66.906185 c 0,0 8.45728,-5.96985 9.94975,1.243716 1.49246,7.213568 -16.04397,17.28769 -16.04397,17.28769"
       id="path33" />
    <path
       style="fill:none;fill-opacity:1;stroke:#fd25fb;stroke-width:1;stroke-opacity:1"
       d="m 261.09877,69.642365 c 8.77083,-5.319606 -0.39662,-13.783498 -2.36307,-5.099246 -0.17707,20.253228 5.59673,10.447235 5.59673,10.447235"
       id="path34"
       sodipodi:nodetypes="ccc" />
    <path
       style="fill:none;fill-opacity:1;stroke:#fd25fb;stroke-width:1;stroke-opacity:1"
       d="m 267.06861,62.428796 0.12437,14.178393 V 64.66749 l 7.9598,-2.611809"
       id="path35" />
    <text
       xml:space="preserve"
       style="font-style:normal;font-variant:normal;font-weight:300;font-stretch:normal;font-size:4.23333px;font-family:'FiraCode Nerd Font';-inkscape-font-specification:'FiraCode Nerd Font Light';text-align:start;writing-mode:lr-tb;direction:ltr;text-anchor:start;fill:#333333;fill-opacity:1;stroke:#fd25fb;stroke-width:1;stroke-opacity:1"
       x="217.30322"
       y="103.59425"
       id="text36"><tspan
         sodipodi:role="line"
         style="font-size:4.23333px;fill:#333333;fill-opacity:1;stroke:none;stroke-width:1;stroke-opacity:1"
         x="217.30322"
         y="103.59425"
         id="tspan37">only teleportation is faster - probability.</tspan></text>
    <ellipse
       style="fill:#c22ad2;fill-opacity:1;stroke:none;stroke-width:1;stroke-opacity:1"
       id="path38"
       cx="133.40448"
       cy="61.556938"
       rx="1.2312186"
       ry="1.0553302" />
    <ellipse
       style="fill:#c22ad2;fill-opacity:1;stroke:none;stroke-width:1;stroke-opacity:1"
       id="path39"
       cx="132.52504"
       cy="64.283211"
       rx="1.407107"
       ry="1.1432744" />
    <ellipse
       style="fill:#c22ad2;fill-opacity:1;stroke:none;stroke-width:1;stroke-opacity:1"
       id="path40"
       cx="194.78952"
       cy="57.159729"
       rx="1.2312186"
       ry="0.87944186" />
    <ellipse
       style="fill:#c22ad2;fill-opacity:1;stroke:none;stroke-width:1;stroke-opacity:1"
       id="path41"
       cx="196.98813"
       cy="62.524323"
       rx="0.79149765"
       ry="1.1432744" />
    <ellipse
       style="fill:#fce100;fill-opacity:1;stroke:none;stroke-width:1;stroke-opacity:1"
       id="path42"
       cx="136.8343"
       cy="63.051987"
       rx="0.26383263"
       ry="3.0780466" />
    <path
       style="fill:#fce100;fill-opacity:1;stroke:none;stroke-width:1;stroke-opacity:1"
       d="m 126.89661,48.365311 c -2.52082,9.942037 -16.26902,38.407312 -6.85965,61.033259 -0.67471,6.30314 2.28116,8.97571 4.22132,12.66397 l 3.24951,0.64136 c -15.02714,-21.9724 -6.34804,-50.877753 1.32359,-73.810925 z"
       id="path43"
       sodipodi:nodetypes="cccccc" />
    <path
       style="fill:#ffef21;fill-opacity:1;stroke:none;stroke-width:1;stroke-opacity:1"
       d="m 123.55473,88.116082 -1.93477,8.970306 -6.85965,12.312182 -12.48807,8.44264 2.11066,0.70356 11.60863,-8.79442 7.91498,-10.025638 z"
       id="path48" />
    <path
       style="fill:#e900fc;fill-opacity:1;stroke:none;stroke-width:1;stroke-opacity:1"
       d="m 126.01717,48.717087 1.75888,0.879442 c 0,0 -11.25685,22.865488 -9.67386,42.740874 1.583,19.875387 8.09087,29.725137 8.09087,29.725137 l -3.34188,-0.17589 c 0,0 -13.01574,-19.87539 -5.27665,-51.00763 7.73909,-31.13224 8.44264,-22.161933 8.44264,-22.161933 z"
       id="path44" />
    <path
       style="fill:#ffef21;fill-opacity:1;stroke:none;stroke-width:1;stroke-opacity:1"
       d="m 107.72478,49.244752 c 0,0 -11.432744,52.942398 -6.50787,68.420578 4.92487,15.47817 2.63833,-0.17589 2.63833,-0.17589 l -0.87945,-26.910921 c 0,0 5.27665,-36.057116 7.73909,-38.87133 2.46244,-2.814214 -2.9901,-2.462437 -2.9901,-2.462437 z"
       id="path45" />
    <path
       style="fill:#ffef21;fill-opacity:1;stroke:none;stroke-width:1;stroke-opacity:1"
       d="m 102.97579,118.36888 18.46828,0.70355 1.93477,2.99011 -12.31218,-1.75889 h -8.44264 z"
       id="path46" />
    <path
       style="fill:#ffef21;fill-opacity:1;stroke:none;stroke-width:1;stroke-opacity:1"
       d="m 124.96184,119.07243 4.74899,-4.92487 2.46243,-10.37741 1.93477,0.70355 -1.23121,8.79442 -6.50787,8.79442 z"
       id="path47" />
    <path
       style="fill:#ff21ed;fill-opacity:1;stroke:none;stroke-width:1;stroke-opacity:1"
       d="m 132.62263,103.59588 1.55465,0.99498 -1.49246,8.58165 -6.84045,7.33795 -0.68405,-1.74121 4.47739,-4.97487 z"
       id="path49" />
    <path
       style="fill:#ff21ed;fill-opacity:1;stroke:none;stroke-width:1;stroke-opacity:1"
       d="m 130.76616,45.375208 35.70533,-7.035535 16.53352,1.231219 13.54339,2.990102 1.75889,-0.703554 c -5.49752,-7.024558 -8.78657,-1.847349 -13.01574,-4.22132 l -16.7094,-0.527666 c -13.48477,0.861861 -24.85888,2.753862 -37.99188,6.331982 z"
       id="path50"
       sodipodi:nodetypes="ccccccccc" />
    <path
       style="fill:#ff21ed;fill-opacity:1;stroke:none;stroke-width:1;stroke-opacity:1"
       d="m 197.42784,41.505664 c 5.35806,9.719705 9.31615,19.116342 8.61854,27.438585 l -0.70355,36.408891 -5.27666,14.24696 3.16599,-1.40711 4.22133,-12.1363 0.17588,-40.806096 C 207.26844,56.86887 205.49521,48.840221 199.5385,41.85744 Z"
       id="path51"
       sodipodi:nodetypes="ccccccccc" />
  </g>
</svg>
