<?xml version="1.0" encoding="UTF-8" standalone="no"?>
<!-- Created with Inkscape (http://www.inkscape.org/) -->

<svg
   width="112.24944"
   height="83.139321"
   viewBox="0 0 112.24944 83.139321"
   version="1.1"
   id="svg1"
   xmlns="http://www.w3.org/2000/svg"
   xmlns:svg="http://www.w3.org/2000/svg">
  <defs
     id="defs1" />
  <g
     id="layer14"
     style="display:inline"
     transform="translate(-122.53392,-9.8030187)" />
  <g
     id="layer6"
     transform="translate(-96.948308,0.77050234)">
    <text
       xml:space="preserve"
       style="font-weight:bold;font-size:46.4372px;font-family:'FiraCode Nerd Font';-inkscape-font-specification:'FiraCode Nerd Font Bold';text-align:start;writing-mode:lr-tb;direction:ltr;text-anchor:start;display:inline;fill:#ffef21;fill-opacity:1;stroke:none;stroke-width:1.82823;stroke-opacity:1"
       x="96.010002"
       y="77.831177"
       id="text35-8"><tspan
         id="tspan35-4"
         style="fill:#ffef21;fill-opacity:1;stroke:none;stroke-width:1.82823"
         x="96.010002"
         y="77.831177">DERP</tspan></text>
  </g>
  <g
     id="layer8"
     transform="translate(-96.948308,0.77050234)"
     style="display:inline">
    <path
       id="path20"
       style="fill:#ff00cc;fill-opacity:1;stroke:none;stroke-width:1;stroke-opacity:1"
       d="M 98.950455,-0.77050179 C 97.820294,-0.77144162 96.685362,0.4242367 97.002253,2.198826 l 6.815607,38.167696 c 0.1882,1.053913 1.35396,0.823093 1.23145,-0.307991 l -2.20607,-20.368783 c 6.12989,-14.2576003 29.74467,-14.9910784 16.34526,21.028174 -0.61641,1.656963 -0.0964,2.309034 0.59634,1.195276 18.83329,-30.279514 -7.56796,-44.717145 -17.24856,-25.059453 L 100.89401,1.6929137 c -0.18826,-1.7381221 -1.064541,-2.46268452 -1.943555,-2.46341549 z M 178.56213,8.1162943 c -0.27929,-0.00893 -0.568,5.345e-4 -0.86609,0.029972 -14.47494,1.4294336 -4.52619,44.7898247 5.16919,25.2087977 0.85947,-1.735816 -0.17233,-2.073124 -0.63975,-1.161686 -9.69545,18.904497 -12.77665,-22.5033049 -4.43591,-22.2125984 6.70755,0.2337834 8.07539,15.5030174 -2.06344,14.7376024 -1.30941,-0.09885 -1.28698,0.98605 0.28009,1.088305 10.81256,0.705548 11.21384,-17.4136774 2.55591,-17.6903927 z m 9.08007,3.5522377 c -0.71088,-0.01714 -1.44883,0.360621 -1.53117,1.281059 -0.2377,2.657038 2.91655,23.643937 3.34191,25.421187 0.34137,1.426306 2.15701,1.36692 1.85932,-0.23306 -1.23044,-6.613263 -2.19196,-13.320712 -2.34353,-20.233907 1.98469,-2.266279 7.24612,-4.924203 10.59522,-3.541903 3.0512,1.259347 3.0558,-1.893574 0.43822,-2.428792 -2.50695,-0.512598 -8.04249,1.054836 -11.05256,4.487064 -0.006,-1.214112 0.0118,-2.433945 0.061,-3.661792 0.0264,-0.660382 -0.65751,-1.072721 -1.36839,-1.089856 z m -28.92898,2.67994 c -2.93663,0.0072 -6.00521,0.945081 -8.53178,2.923336 l 0.0274,-0.56224 c 0.12665,-2.58939 -3.04205,-3.044111 -3.16621,1.407149 l -0.86145,30.877702 c -2.13589,1.460222 -4.46176,2.965351 -7.00939,4.519621 -1.26017,0.768811 -0.69137,1.904814 0.74724,1.055233 2.22276,-1.312663 4.28396,-2.59922 6.21461,-3.862814 l -0.8501,30.465841 c -0.0476,1.706389 1.70367,1.396122 1.75907,0.264067 l 1.58492,-32.398023 C 179.28694,27.9709 169.97435,14.32092 158.71322,14.348472 Z m -1.76837,2.200899 c 9.23561,0.148071 19.42754,10.757576 -8.22844,30.664795 l 1.37563,-28.113529 c 1.5668,-1.752638 4.16816,-2.594308 6.85281,-2.551266 z m -12.34964,0.04289 c -0.81868,-0.04857 -1.83847,0.538196 -2.38796,1.950268 -2.55093,6.555277 -5.92002,12.800968 -9.82059,18.957499 -2.67971,-9.305265 -2.82966,-15.094427 -2.91559,-18.782316 -0.0548,-2.353833 -3.14541,-1.745188 -2.61172,1.554944 1.79188,11.080379 3.09848,15.137091 4.42815,18.939929 -5.20165,7.989901 -11.26645,15.861718 -17.61185,24.092587 -1.35266,1.754586 -0.43801,3.341257 0.80874,1.928047 13.92312,-15.782061 21.68737,-30.213986 30.84411,-45.70677 1.03952,-1.758811 0.3193,-2.87174 -0.73329,-2.934188 z" />
  </g>
  <g
     id="layer5"
     transform="translate(-96.948308,0.77050234)" />
  <g
     id="layer2"
     transform="translate(-101.87317,-2.9996704)"
     style="display:inline" />
  <g
     id="layer13"
     style="display:inline"
     transform="translate(-122.53392,-9.8030187)" />
  <g
     id="layer11"
     transform="translate(-96.948308,0.77050234)"
     style="display:inline;opacity:1" />
  <g
     id="layer10"
     transform="translate(-96.948308,0.77050234)" />
</svg>
