<?xml version="1.0" encoding="UTF-8" standalone="no"?>
<!-- Created with Inkscape (http://www.inkscape.org/) -->

<svg
   width="234.78337mm"
   height="92.942406mm"
   viewBox="0 0 234.78337 92.942406"
   version="1.1"
   id="svg1"
   inkscape:export-filename="hyper-derp.png"
   inkscape:export-xdpi="96"
   inkscape:export-ydpi="96"
   inkscape:version="1.4 (e7c3feb100, 2024-10-09)"
   sodipodi:docname="hyper-derp.inkscape.svg"
   xmlns:inkscape="http://www.inkscape.org/namespaces/inkscape"
   xmlns:sodipodi="http://sodipodi.sourceforge.net/DTD/sodipodi-0.dtd"
   xmlns="http://www.w3.org/2000/svg"
   xmlns:svg="http://www.w3.org/2000/svg">
  <sodipodi:namedview
     id="namedview1"
     pagecolor="#505050"
     bordercolor="#eeeeee"
     borderopacity="1"
     inkscape:showpageshadow="0"
     inkscape:pageopacity="0"
     inkscape:pagecheckerboard="0"
     inkscape:deskcolor="#505050"
     inkscape:document-units="mm"
     inkscape:zoom="2"
     inkscape:cx="381.75"
     inkscape:cy="189.5"
     inkscape:window-width="2560"
     inkscape:window-height="1403"
     inkscape:window-x="0"
     inkscape:window-y="0"
     inkscape:window-maximized="1"
     inkscape:current-layer="layer14"
     showguides="true" />
  <defs
     id="defs1" />
  <g
     inkscape:groupmode="layer"
     id="layer7"
     inkscape:label="p"
     style="display:none"
     transform="translate(25.585613,10.573521)"
     sodipodi:insensitive="true">
    <path
       style="fill:none;fill-opacity:1;stroke:#000000;stroke-width:1;stroke-opacity:1"
       d="M 198.73846,118.06203 81.196346,84.171873 202.34524,44.309522"
       id="path12"
       sodipodi:nodetypes="ccc"
       transform="translate(-105.08645,-40.702738)" />
    <path
       style="fill:none;fill-opacity:1;stroke:#000000;stroke-width:1;stroke-opacity:1"
       d="M 80.087707,85.227863 142.14926,30.504246"
       id="path13"
       transform="translate(-105.08645,-40.702738)" />
    <path
       style="fill:#ffef21;fill-opacity:1;stroke:#000000;stroke-width:1;stroke-opacity:1"
       d="M 80.460822,83.984143 116.03117,120.4251"
       id="path11"
       sodipodi:nodetypes="cc"
       transform="translate(-105.08645,-40.702738)" />
  </g>
  <g
     inkscape:label="bg yellow"
     inkscape:groupmode="layer"
     id="layer1"
     transform="translate(-79.500837,-30.129217)"
     sodipodi:insensitive="true"
     style="display:none">
    <path
       style="fill:#ffef21;fill-opacity:1;stroke-width:1"
       d="m 183.58068,51.279052 -0.43973,5.804317 -3.50694,45.749341 -1.41091,6.20436 0.0673,2.56178 1.96053,0.32434 0.0405,-5.82473 c 3.9779,-15.06663 3.55344,-32.737378 4.6964,-48.487426 l 0.52767,-8.090865 z"
       id="path3"
       sodipodi:nodetypes="cccccccccc" />
    <path
       style="fill:#ffef21;fill-opacity:1;stroke-width:1"
       d="m 199.45056,116.42268 -7.82704,-3.60571 -11.74756,-1.86429 -0.70355,1.67094 11.91278,2.56601 6.95826,2.28838 1.23122,1.05533 0.87944,-0.35178 z"
       id="path4"
       sodipodi:nodetypes="ccccccccc" />
    <path
       style="fill:#ffef21;fill-opacity:1;stroke-width:1"
       d="m 108.53826,58.841226 6.48588,3.429823 5.49652,3.67167 4.0894,1.231219 3.25393,-1.846828 -4.04543,3.869543 -4.00145,-2.550381 -6.02418,-2.704284 -4.81495,-2.990102 -1.75888,-0.615609 z"
       id="path5"
       sodipodi:nodetypes="ccccccccccc" />
    <path
       style="fill:#ffef21;fill-opacity:1;stroke-width:1.01466"
       d="m 108.03754,109.20501 19.0809,2.11066 24.89895,0.61561 22.04559,-0.26383 5.55959,-0.48369 0.44491,1.49505 -6.8613,0.044 -18.92525,0.52766 -27.70573,-0.79149 -18.63841,-1.89081 z"
       id="path6"
       sodipodi:nodetypes="ccccccccccc" />
    <path
       style="fill:#ffef21;fill-opacity:1;stroke-width:1"
       d="m 107.81272,110.53042 10.5533,-8.88236 5.71637,-3.429825 -0.87944,-1.670941 -5.71637,4.221316 -6.06815,4.66105 -4.48515,3.7816 z"
       id="path7" />
    <path
       style="fill:#ffef21;fill-opacity:1;stroke-width:1"
       d="m 177.37657,59.083072 2.34518,-2.825984 4.07475,-6.386169 0.87944,0.263832 -2.87868,4.445045 -1.95825,4.063555 z"
       id="path8"
       sodipodi:nodetypes="ccccccc" />
    <path
       style="fill:#ffef21;fill-opacity:1;stroke-width:1"
       d="m 198.15338,44.814128 -5.18038,6.11954 -3.19424,2.808706 -3.84962,4.791047 -3.7816,2.72627 2.1986,-0.08794 4.92488,-4.705014 5.87027,-6.266023 3.53976,-3.187977 z"
       id="path9"
       sodipodi:nodetypes="cccccccccc" />
    <path
       style="fill:#ffef21;fill-opacity:1;stroke-width:1"
       d="m 120.9164,49.233324 2.86908,5.352853 9.02289,7.689103 -1.34492,1.904136 -2.37449,-3.165991 -6.70434,-5.101835 -3.23335,-4.923801 z"
       id="path10"
       sodipodi:nodetypes="cccccccc" />
    <path
       style="fill:#ffef21;fill-opacity:1;stroke:none;stroke-width:1;stroke-opacity:1"
       d="m 72.384422,71.01633 -3.307818,-4.638186 -1.293943,-2.948498 1.243719,-0.74623 0.870604,2.580716 1.430276,2.176508 3.358039,3.420226 z"
       id="path15"
       transform="translate(105.08645,40.702738)"
       sodipodi:nodetypes="cccccccc" />
  </g>
  <g
     inkscape:groupmode="layer"
     id="layer14"
     inkscape:label="bg yellow 2"
     style="display:inline">
    <path
       style="display:inline;opacity:1;fill:#ffef21;fill-opacity:1;stroke:none;stroke-width:1;stroke-opacity:1"
       d="M 86.737744,5.9136677 79.230811,8.9070863 68.122423,12.812562 50.115138,13.139967 30.915165,14.262499 24.90494,14.168955 c 0,0 -1.660411,0.467722 -2.899873,0.678197 -1.239464,0.210474 -3.531298,0.77174 -3.531298,0.77174 l -4.91108,-0.584652 -6.314241,0.631425 -1.7305708,0.397563 -0.1403164,0.724969 8.5125342,-0.280633 6.548105,0.561266 9.892313,-1.800729 11.389021,-0.04677 23.83042,-1.496709 -1.520095,2.455538 2.408767,0.53788 1.637024,-2.572469 c 0,0 2.853103,-1.379779 4.349811,-1.543482 1.496711,-0.163702 11.038231,-3.4143675 11.41241,-3.4611398 0.374177,-0.046772 0.210474,1.5902538 -1.099145,2.2918358 -1.309621,0.701583 -4.72399,5.332028 -4.72399,5.332028 l -1.005602,1.847501 2.80633,1.683797 0.654812,-2.759559 c 0,0 4.092564,-4.536899 5.565886,-6.50133 1.473324,-1.964431 4.092564,-2.6660136 4.092564,-2.6660136 0,0 -1.262848,-2.1749057 -1.566867,-2.1749057 -0.304017,0 -1.824115,-0.280633 -1.824115,-0.280633 z"
       id="path76"
       transform="translate(25.585613,10.573521)" />
    <path
       style="fill:#ffef21;fill-opacity:1;stroke:none;stroke-width:1;stroke-opacity:1"
       d="m 44.854508,21.141019 c 0,0 1.590254,3.320824 1.777341,3.414369 0.187089,0.09354 3.788547,8.465763 3.788547,8.465763 0,0 1.122532,2.525696 1.262849,2.478923 0.140316,-0.04677 3.180506,-2.61924 3.180506,-2.61924 l -3.180506,-3.695001 -2.80633,-3.507914 -1.403165,-7.623863 -3.040192,-0.514493 z"
       id="path77" />
    <path
       style="fill:#ffef21;fill-opacity:1;stroke:none;stroke-width:1;stroke-opacity:1"
       d="m 29.840642,27.502035 6.267471,5.425569 4.209494,1.449938 4.443357,2.80633 3.320823,-2.15152 0.140316,1.075761 -3.835318,4.115951 -3.320822,-2.759559 -5.940065,-3.04019 -6.361015,-4.583673 -0.280633,-2.245064 z"
       id="path78" />
    <path
       style="fill:#ffef21;fill-opacity:1;stroke:none;stroke-width:1;stroke-opacity:1"
       d="m 44.012609,61.318311 -0.608039,3.274052 -0.982215,2.478924 -4.95785,2.666013 c 0,0 -6.922281,5.659432 -6.781964,5.846522 0.140316,0.187089 -3.227279,3.601455 -2.899873,3.835317 0.327403,0.23386 2.525696,1.075759 2.525696,1.075759 l 1.870888,-3.975634 3.554682,-3.554685 7.577092,-3.367596 2.011204,-1.356391 z"
       id="path79" />
    <path
       style="fill:#ffef21;fill-opacity:1;stroke:none;stroke-width:1;stroke-opacity:1"
       d="m 29.934185,78.156291 c 0.06015,-0.466191 11.349897,-0.162449 17.02507,-0.140316 2.915818,0.01137 5.835485,-0.02919 8.746394,0.140316 2.487231,0.144836 7.156143,0.561266 7.436776,0.748353 0.280633,0.187089 11.96441,-0.943222 17.960512,-1.075759 2.993053,-0.06616 9.750791,2.709062 9.658451,0.07016 -0.06548,-1.871203 -1.893817,-2.955294 -1.23946,-4.06918 0.669059,-1.138911 1.938553,-1.064987 2.478923,0.140318 0.58067,1.295192 -0.291987,2.555036 0.233861,3.952247 0.322886,0.857928 1.380357,1.77343 2.291838,1.870886 7.08646,0.75769 14.83546,2.834912 18.1476,2.33861 1.27075,-0.190413 -4.75984,-3.146176 -6.96905,-4.770762 -1.93444,-1.422529 -4.96822,-2.111631 -5.706209,-4.396584 -0.469982,-1.455148 0.634919,-3.024314 1.309619,-4.396584 1.15312,-2.345337 2.05964,-7.03888 4.58368,-6.361015 1.05926,0.284478 0.49948,2.190842 0.3274,3.274052 -0.35814,2.254427 -3.04635,4.002861 -2.75956,6.267472 0.15204,1.200578 1.3649,2.022559 2.24507,2.853102 2.28059,2.151999 6.73519,4.677217 7.7174,5.378799 0.98222,0.701583 4.60667,1.534269 4.63045,3.461139 0.0184,1.487637 -2.03359,2.56011 -3.50791,2.759559 -0.83787,0.113348 -1.55756,-0.658442 -2.33861,-0.982215 -0.68468,-0.283823 -1.85547,-1.636381 -2.57247,-1.824115 -3.66289,-0.959053 -5.32485,-0.613784 -8.95687,-1.683798 -2.307667,-0.679849 -5.973075,-1.268117 -8.302062,-1.870886 -3.159718,-0.817772 -10.056016,-0.748356 -9.775383,-0.561266 -11.197944,0.329598 -22.357226,1.467629 -33.582413,1.730571 -0.514496,-0.04677 -1.032019,1.093894 -1.496711,1.683797 -0.810919,1.02942 -2.432153,3.133733 -2.245064,3.227279 0.18709,0.09354 -3.086962,0.982216 -2.899873,0.982216 0.187087,0 0.187087,-5.144939 0.46772,-5.051393 0.280633,0.09354 3.164633,-0.842824 2.806329,-1.917661 -0.335602,-1.006735 -2.120633,0.193389 -3.180505,0.140317 -1.951067,-0.0977 -3.848221,-0.753871 -5.799749,-0.841899 -2.308448,-0.104127 -5.350134,2.067732 -6.92228,0.374176 -0.331546,-0.35715 0.187086,-1.449935 0.187086,-1.449935 z"
       id="path80"
       sodipodi:nodetypes="ssssssssssssssssssssssssssssssssssss" />
    <path
       style="fill:#ffef21;fill-opacity:1;stroke:none;stroke-width:1;stroke-opacity:1"
       d="m 54.021853,72.450087 c 0.243477,2.555029 -2.621943,5.514177 -4.981237,6.524716 -1.137973,0.48742 -2.979189,0.920609 -2.151519,-10e-7 1.731666,-1.926119 2.328048,-2.36946 3.390983,-3.227278 0.96093,-0.775497 1.590377,-2.364026 1.917658,-3.554685 0.116365,-0.423337 -0.642887,-0.962994 -0.23386,-1.122532 0.946911,-0.369336 1.961557,0.367973 2.057975,1.37978 z"
       id="path81"
       sodipodi:nodetypes="sssssss" />
  </g>
  <g
     inkscape:groupmode="layer"
     id="layer6"
     inkscape:label="Text"
     transform="translate(25.585613,10.573521)">
    <text
       xml:space="preserve"
       style="font-weight:bold;font-size:46.4372px;font-family:'FiraCode Nerd Font';-inkscape-font-specification:'FiraCode Nerd Font Bold';text-align:start;writing-mode:lr-tb;direction:ltr;text-anchor:start;display:inline;fill:#ffef21;fill-opacity:1;stroke:none;stroke-width:1.82823;stroke-opacity:1"
       x="96.010002"
       y="77.831177"
       id="text35-8"><tspan
         sodipodi:role="line"
         id="tspan35-4"
         style="fill:#ffef21;fill-opacity:1;stroke:none;stroke-width:1.82823"
         x="96.010002"
         y="77.831177">DERP</tspan></text>
    <g
       id="g19"
       style="display:none;opacity:0.382">
      <path
         style="fill:none;fill-opacity:1;stroke:#fd25fb;stroke-width:1.82823;stroke-opacity:1"
         d="M 98.056433,0.97641975 105.10525,40.085933 101.69453,21.440701 c 0,0 14.55238,-22.7380911 21.14644,-5.911905 6.59404,16.826188 -3.41072,25.921422 -3.41072,25.921422"
         id="path30-5" />
      <path
         style="fill:none;fill-opacity:1;stroke:#fd25fb;stroke-width:1.82823;stroke-opacity:1"
         d="m 128.2981,20.303799 2.04643,18.190473 -17.05357,30.46904 30.46905,-49.569038"
         id="path31-0" />
      <path
         style="fill:none;fill-opacity:1;stroke:#fd25fb;stroke-width:1.82823;stroke-opacity:1"
         d="m 149.21714,19.394274 -2.27381,60.938082 z"
         id="path32-3" />
      <path
         style="fill:none;fill-opacity:1;stroke:#fd25fb;stroke-width:1.82823;stroke-opacity:1"
         d="m 149.89929,20.303799 c 0,0 15.46189,-10.9142851 18.19048,2.273804 2.72856,13.188094 -29.33214,31.60595 -29.33214,31.60595"
         id="path33-6" />
      <path
         style="fill:none;fill-opacity:1;stroke:#fd25fb;stroke-width:1.82823;stroke-opacity:1"
         d="m 176.50286,25.306177 c 16.03514,-9.725486 -0.72511,-25.19946481 -4.32024,-9.322617 -0.32373,37.027649 10.23213,19.099995 10.23213,19.099995"
         id="path34-1"
         sodipodi:nodetypes="ccc" />
      <path
         style="fill:none;fill-opacity:1;stroke:#fd25fb;stroke-width:1.82823;stroke-opacity:1"
         d="m 187.41713,12.118082 0.22738,25.921426 V 16.21094 l 14.55238,-4.774999"
         id="path35-0" />
    </g>
  </g>
  <g
     inkscape:groupmode="layer"
     id="layer8"
     inkscape:label="t2"
     transform="translate(25.585613,10.573521)">
    <path
       style="fill:#ff00cc;fill-opacity:1;stroke:none;stroke-width:1;stroke-opacity:1"
       d="M 97.002435,2.1986046 103.81811,40.36638 c 0.1882,1.053913 1.35374,0.823279 1.23123,-0.307805 L 100.89397,1.6929256 c -0.4303,-3.9728506 -4.454897,-2.64914643 -3.891535,0.505679 z"
       id="path20"
       sodipodi:nodetypes="sssss" />
    <path
       style="fill:#ff00cc;fill-opacity:1;stroke:none;stroke-width:1;stroke-opacity:1"
       d="m 101.39964,19.523608 0.52767,1.275192 c 4.83018,-15.9137774 31.85765,-18.2013042 16.5335,19.919357 -0.6594,1.640326 0.63149,2.308548 1.32423,1.19479 19.62922,-31.559186 -9.88438,-45.9160273 -18.3854,-22.389339 z"
       id="path21"
       sodipodi:nodetypes="ccssc" />
    <path
       style="fill:#ff00cc;fill-opacity:1;stroke:none;stroke-width:1;stroke-opacity:1"
       d="m 142.20736,18.542723 c 1.25599,-3.227594 4.96919,-2.143116 3.12116,0.983659 -9.15674,15.492784 -16.92111,29.924596 -30.84423,45.706657 -1.24675,1.41321 -2.16107,-0.173177 -0.80841,-1.927763 C 125.3515,48.160369 136.10106,34.2345 142.20736,18.542723 Z"
       id="path22"
       sodipodi:nodetypes="sssss" />
    <path
       style="fill:#ff00cc;fill-opacity:1;stroke:none;stroke-width:1;stroke-opacity:1"
       d="m 126.8593,20.272613 c -0.53369,-3.300132 2.55695,-3.908481 2.6118,-1.554648 0.0867,3.72108 0.23489,9.575803 2.98493,19.028893 l -1.04585,1.819128 c -1.37244,-3.909884 -2.70397,-7.872747 -4.55088,-19.293373 z"
       id="path23"
       sodipodi:nodetypes="ssccs" />
    <path
       style="fill:#ff00cc;fill-opacity:1;stroke:none;stroke-width:1;stroke-opacity:1"
       d="m 147.04268,18.116502 c 0.12416,-4.45126 3.29264,-3.996497 3.16599,-1.407107 l -3.16599,64.72692 c -0.0554,1.132055 -1.80649,1.442554 -1.75889,-0.263835 z"
       id="path24"
       sodipodi:nodetypes="sssss" />
    <path
       style="fill:#ff00cc;fill-opacity:1;stroke:none;stroke-width:1;stroke-opacity:1"
       d="m 148.97745,18.336362 0.44727,1.670404 c 5.99795,-10.1097358 41.05513,2.204864 -10.25305,33.507271 -1.26017,0.768811 -0.69109,1.904911 0.74752,1.05533 52.40663,-30.949132 21.46339,-48.6149931 9.05826,-36.233005 z"
       id="path25"
       sodipodi:nodetypes="ccssc" />
    <path
       style="fill:#ff00cc;fill-opacity:1;stroke:none;stroke-width:1;stroke-opacity:1"
       d="m 175.72627,24.718375 c -1.30941,-0.09885 -1.28724,0.985999 0.27983,1.088254 11.16136,0.728307 11.2293,-18.6022815 1.69019,-17.6602723 -14.47494,1.4294336 -4.5266,44.7895013 5.16878,25.2084743 0.85947,-1.735816 0.0923,-1.742114 -0.37512,-0.830676 -9.69545,18.904497 -13.04112,-22.83402 -4.70038,-22.5433135 6.70755,0.2337835 8.07553,15.5029485 -2.0633,14.7375335 z"
       id="path26"
       sodipodi:nodetypes="sssssss" />
    <path
       style="fill:#ff00cc;fill-opacity:1;stroke:none;stroke-width:1;stroke-opacity:1"
       d="m 184.80149,12.201321 c -0.2377,2.657038 2.91668,23.643916 3.34204,25.421166 0.34137,1.426306 2.15669,1.366649 1.859,-0.233331 -1.53343,-8.241747 -3.04912,-16.760746 -2.69851,-25.511644 0.0529,-1.320764 -2.33784,-1.517067 -2.50253,0.323809 z"
       id="path27"
       sodipodi:nodetypes="sssss" />
    <path
       style="fill:#ff00cc;fill-opacity:1;stroke:none;stroke-width:1;stroke-opacity:1"
       d="m 198.25446,13.613383 c 3.0512,1.259347 3.05542,-1.893213 0.43784,-2.428431 -2.91102,-0.595218 -9.90858,1.611459 -12.28997,6.289295 l 0.46262,1.200393 c 0.10449,-2.254871 7.22661,-6.779442 11.38951,-5.061257 z"
       id="path28"
       sodipodi:nodetypes="ssccs" />
  </g>
  <g
     inkscape:groupmode="layer"
     id="layer12"
     inkscape:label="bg magenta"
     transform="translate(25.585613,10.573521)">
    <path
       style="fill:#ff00cc;fill-opacity:1;stroke:none;stroke-width:1;stroke-opacity:1"
       d="m 12.975264,60.803817 c -1.382062,0.594021 -3.3190686,0.868764 -5.1304389,2.857558 -1.5568214,1.709313 -2.3739903,3.9287 -3.4232765,4.322169 -1.6458934,0.617189 -0.7792667,1.285568 -1.4281339,1.273309 -0.4479419,-0.0085 -0.5327694,-0.667425 0.1058382,-1.221864 1.0859406,-0.942813 2.9682406,-3.483141 3.7828994,-4.273749 1.4658184,-1.422544 3.8532837,-3.976314 5.8379527,-4.787482 0.519508,-0.212332 0.566484,-0.248809 0.737914,0.850723 0.07857,0.503959 0.152253,0.706405 -0.482755,0.979336 z"
       id="path62"
       sodipodi:nodetypes="sssssssss" />
    <path
       style="fill:#ff00cc;fill-opacity:1;stroke:none;stroke-width:1;stroke-opacity:1"
       d="m 42.872944,78.794654 c -0.0443,-0.228091 3.216316,-0.26661 3.682389,0.07239 0.174691,0.127044 -0.668568,1.16146 -0.795127,1.104994 -0.714153,-0.31863 -2.751264,0.314168 -2.764485,0.108902 -0.03088,-0.479433 -0.0378,-0.848816 -0.122777,-1.286286 z"
       id="path64"
       sodipodi:nodetypes="sssss"
       transform="translate(-25.585613,-10.573521)" />
    <path
       style="fill:#ff00cc;fill-opacity:1;stroke:none;stroke-width:1;stroke-opacity:1"
       d="m 114.81977,84.642091 c 0.39706,0.376954 -3.23251,-0.18443 -4.66185,-0.428427 -3.87099,-0.660799 -13.269235,-1.519554 -16.666173,-3.489832 -2.654588,-1.539703 -1.859332,-1.153129 -6.452116,-0.976533 -1.386495,0.05331 -7.902428,-1.149217 -13.019979,-0.464573 -2.713341,0.363001 -8.513995,0.77085 -9.051874,0.817623 -0.537882,0.04677 -15.891189,0.308437 -16.031506,0.308437 -0.140316,0 1.027052,-1.400187 1.53408,-1.452775 2.556036,-0.265106 8.572566,0.924556 13.515211,0.04517 10.39512,-1.849438 15.78905,-0.750667 18.269869,-0.773403 0.548911,-0.005 7.853674,0.583322 8.258117,-0.01942 0.548245,-0.817047 -0.833172,-2.019477 -0.723693,-3.012136 0.0085,-0.07744 0.3729,-0.02535 0.490625,-0.08303 0.251345,-0.123143 0.917236,-0.27747 1.034583,-0.292753 0.17787,-0.02316 0.599014,0.03516 0.794368,0.05209 0.369633,0.03203 0.06687,0.432086 0.04233,0.886079 -0.03129,0.578873 0.05021,1.293505 -0.112731,1.932954 -0.239773,0.94099 2.199608,2.345458 2.473072,2.421778 0.518082,0.14459 15.124047,2.385749 17.731757,2.445366 1.25316,0.02865 1.60063,1.157471 2.57591,2.083361 z"
       id="path66"
       sodipodi:nodetypes="sssssssssssssssssssss"
       transform="translate(-25.585613,-10.573521)" />
    <path
       style="fill:#ff00cc;fill-opacity:1;stroke:none;stroke-width:1;stroke-opacity:1"
       d="m 97.969699,22.036033 c 1.771417,-0.673536 12.427661,-4.35835 13.808361,-4.560022 0.53787,-0.07856 -1.45884,1.543005 -1.95953,1.609943 -1.55195,0.207482 -12.401251,3.846918 -15.125439,4.79921 -1.328267,0.464321 -1.576182,0.951825 -2.262908,2.332807 -0.226121,0.454721 -2.292749,-0.222523 -1.87615,-0.548221 2.173043,-1.698889 1.248438,-1.562392 -0.432918,-1.465014 -10.230244,0.592498 -11.811386,0.389521 -22.022257,1.25385 -12.505388,1.058555 -14.785192,-0.318469 -17.900827,1.303139 -0.231245,0.120357 -0.838789,-0.539098 -0.854911,-1.114911 -0.01239,-0.442687 0.453678,-0.437476 0.877959,-0.53209 4.002786,-0.892612 5.11416,0.427275 6.62711,0.286512 4.130349,-0.384282 20.282153,-1.495906 24.430244,-1.467648 10.298881,-0.724453 10.712949,-0.61713 12.57195,-0.814653 1.710868,-0.181784 2.72472,-0.552642 4.119316,-1.082902 z"
       id="path67"
       sodipodi:nodetypes="sssssssssssssss"
       transform="translate(-25.585613,-10.573521)" />
    <path
       style="fill:#ff00cc;fill-opacity:1;stroke:none;stroke-width:1;stroke-opacity:1"
       d="m 33.640245,26.302815 c 0.797569,-0.11336 3.429243,-0.402959 5.678652,-0.685735 0.550867,-0.06925 -0.226946,1.020502 -0.256558,1.322917 -0.03686,0.376476 -0.830513,-0.04934 -1.84132,-0.07245 -1.939527,-0.04435 -2.717044,0.17074 -4.049715,0.27618 -0.956856,0.0757 -1.63845,0.394883 -0.770438,-0.235904 0.38512,-0.279868 0.748915,-0.535293 1.239379,-0.605004 z"
       id="path68"
       sodipodi:nodetypes="sssssss"
       transform="translate(-25.585613,-10.573521)" />
    <path
       style="fill:#ff00cc;fill-opacity:1;stroke:none;stroke-width:1;stroke-opacity:1"
       d="m 47.278668,25.875622 c -0.114196,0.570979 0.473354,1.090421 0.32236,1.138807 -1.609975,0.515917 -2.585709,0.636121 -3.272271,0.332735 -0.263376,-0.116384 -0.227569,-1.274514 -0.02539,-1.205641 0.549791,0.18729 0.982072,0.175281 1.469251,0.04247 0.595886,-0.162439 1.586692,-0.711579 1.506051,-0.308376 z"
       id="path70"
       sodipodi:nodetypes="sssssss"
       transform="translate(-25.585613,-10.573521)" />
    <path
       style="fill:#ff00cc;fill-opacity:1;stroke:none;stroke-width:1;stroke-opacity:1"
       d="m 4.6292053,68.260966 c 0,0 2.4292914,-0.238443 3.6482311,-0.280633 2.0568026,-0.07119 2.5754916,-0.0038 6.1739246,0.04677 0.184255,0.0026 0.423477,0.997033 0.180827,0.983835 -2.343059,-0.127446 -2.153394,-0.54669 -6.5652267,-0.16532 -3.3565381,0.290145 -4.5840709,0.638 -4.5241311,0.268353 0.076417,-0.471265 0.3956861,-0.799872 1.0863761,-0.853002 z"
       id="path72"
       sodipodi:nodetypes="ssssssss" />
  </g>
  <g
     inkscape:groupmode="layer"
     id="layer5"
     inkscape:label="Derp"
     sodipodi:insensitive="true"
     transform="translate(25.585613,10.573521)">
    <g
       id="g1"
       transform="matrix(0.84133952,0,0,0.84133952,5.0519497,3.1202834)">
      <path
         style="fill:#ececec;stroke:#373137;stroke-width:1;stroke-opacity:1"
         d="m 27.128306,70.01278 c -5.66803,-1.90524 -9.79632,-3.524956 -11.40707,-7.594233 2.3566,-25.774666 0.26827,-29.542261 0.74623,-31.466076 0,0 0.99497,-4.10427 12.18844,-8.706031 7.91373,-3.253421 -1.5276,47.76634 -1.5276,47.76634 z"
         id="path11-5"
         sodipodi:nodetypes="cccsc" />
      <path
         style="fill:#f2f2f2;stroke:#373137;stroke-width:1;stroke-opacity:1"
         d="m 28.421596,22.344818 c 0,0 27.61447,-14.950511 56.63605,-2.28655 12.74714,33.718617 -1.21159,49.442216 0.032,48.825946 0.70355,-0.17589 -35.23803,10.8499 -58.25106,0.95046 -6.50787,-24.272592 1.05419,-47.313587 1.583,-47.489856 z"
         id="path8-3"
         sodipodi:nodetypes="ccccc" />
      <path
         style="fill:#f9f9f9;stroke:#110f11;stroke-width:1;stroke-opacity:1"
         d="M 46.153316,27.855674 C 33.031516,2.1540414 5.8523461,39.452918 30.855576,47.00894 c 2.14149,1.529636 16.68592,-8.016523 15.29774,-19.153266 z"
         id="path9-56"
         sodipodi:nodetypes="ccc" />
      <path
         style="fill:#110f11;fill-opacity:1;stroke:none;stroke-width:1;stroke-opacity:1"
         d="m 20.727996,30.759553 c 9.22413,11.582249 20.2451,-10.765883 6.56413,-9.663931 -2.12477,1.833637 -4.99592,4.202506 -6.56413,9.663931 z"
         id="path10-29"
         sodipodi:nodetypes="ccc" />
      <path
         style="fill:#f9f9f9;stroke:#110f11;stroke-width:1;stroke-opacity:1"
         d="m 70.135136,26.518262 c 13.1218,-25.70163304 40.300974,11.597244 15.29774,19.153266 -2.14149,1.529636 -16.68592,-8.016523 -15.29774,-19.153266 z"
         id="path9-5-1"
         sodipodi:nodetypes="ccc" />
      <path
         style="fill:#110f11;fill-opacity:1;stroke:none;stroke-width:1;stroke-opacity:1"
         d="m 95.515916,29.738787 c -0.42816,-2.868346 -3.7158,-8.450792 -7.03243,-10.240433 -14.72837,1.399572 0.65343,24.645841 7.03243,10.240433 z"
         id="path10-2-2"
         sodipodi:nodetypes="ccc" />
      <path
         style="fill:none;fill-opacity:1;stroke:#373137;stroke-width:1;stroke-opacity:1"
         d="m 58.256406,51.349456 c 0,0 -21.26759,15.297738 -7.9598,13.929648 6.70244,-0.689036 10.10222,-1.236634 11.55473,-2.143791 13.75404,-8.590063 1.00683,4.631231 1.00683,4.631231"
         id="path12-7"
         sodipodi:nodetypes="cssc" />
      <path
         style="fill:#373137;fill-opacity:1;stroke:none;stroke-width:1;stroke-opacity:1"
         d="m 56.577386,53.028475 c -1.28346,-0.154017 -1.61042,9.690096 4.74122,10.019479 -2.61665,1.119578 -13.25055,2.004393 -13.25055,2.004393 -1.67563,0.07665 -2.27869,-1.128638 -2.00009,-2.136308 2.64861,-5.574605 6.6827,-7.454602 10.50942,-9.887564 z"
         id="path25-7"
         sodipodi:nodetypes="ccccc" />
    </g>
  </g>
  <g
     inkscape:groupmode="layer"
     id="layer2"
     inkscape:label="ink"
     transform="translate(20.660747,6.8033483)" />
  <g
     inkscape:groupmode="layer"
     id="layer3"
     inkscape:label="ink yellow"
     transform="translate(20.660747,6.8033483)"
     style="display:none"
     sodipodi:insensitive="true">
    <path
       style="fill:#ffef21;fill-opacity:1;stroke:none;stroke-width:1;stroke-opacity:1"
       d="m 7.0747919,22.653578 26.6617611,-6.917949 25.713881,0.435301 24.314694,-3.378843 0.53208,1.902006 -21.364354,2.34744 -25.74499,0.870603 -14.140877,1.630093 -15.5990751,4.603811 z"
       id="path60"
       sodipodi:nodetypes="cccccccccc" />
    <path
       style="fill:#ffef21;fill-opacity:1;stroke:none;stroke-width:1;stroke-opacity:1"
       d="m 7.4114761,72.54781 6.1795959,5.392319 5.853395,4.091034 -2.039259,1.490254 -9.385333,-7.328323 -1.9764789,-3.209983 z"
       id="path14"
       sodipodi:nodetypes="ccccccc" />
    <path
       style="fill:#ffef21;fill-opacity:1;stroke:none;stroke-width:1;stroke-opacity:1"
       d="M 17.333632,83.498783 34.721117,84.241819 66.09263,83.309722 99.150504,82.446043 99.620401,80.507608 77.654763,79.924206 57.493681,80.394415 15.993124,81.502582 Z"
       id="path36"
       sodipodi:nodetypes="ccccccccc" />
    <path
       style="fill:#ffef21;fill-opacity:1;stroke:none;stroke-width:1;stroke-opacity:1"
       d="m 20.754836,12.663962 -1.897235,12.846957 -4.258875,28.838587 2.381717,13.857431 1.663733,14.284708 -2.0667,0.04397 -4.44118,-27.658446 4.564263,-30.645422 1.954275,-11.422075 z"
       id="path37"
       sodipodi:nodetypes="cccccccccc" />
    <path
       style="fill:#ffef21;fill-opacity:1;stroke:none;stroke-width:1;stroke-opacity:1"
       d="M 5.2766428,55.009088 6.7170521,23.57971 8.3986675,23.34918 7.9078252,27.075034 8.2667361,38.871329 7.5631861,74.400779 6.1144179,72.9982 Z"
       id="path53"
       sodipodi:nodetypes="cccccccc" />
    <path
       style="fill:#ffef21;fill-opacity:1;stroke:none;stroke-width:1;stroke-opacity:1"
       d="M 20.097404,13.315712 47.707966,7.0038406 72.084846,8.496303 98.877074,9.1715092 98.752694,7.5857682 85.550091,7.0512521 68.675691,6.4979301 46.588616,5.1382627 20.688185,11.139205 Z"
       id="path55"
       sodipodi:nodetypes="cccccccccc" />
    <path
       style="fill:#ffef21;fill-opacity:1;stroke:none;stroke-width:1;stroke-opacity:1"
       d="m 97.581076,8.9937903 -0.110371,12.0571547 -0.585891,10.817183 1.866664,34.514148 0.04224,16.084188 1.679012,-0.155462 0.12965,-18.17009 L 100.26703,40.37947 99.8135,16.375702 98.793688,7.6101534 Z"
       id="path56"
       sodipodi:nodetypes="ccccccccccc" />
    <path
       style="fill:#ffef21;fill-opacity:1;stroke:none;stroke-width:1;stroke-opacity:1"
       d="m 96.698676,8.5456749 1.97378,-0.8776114 -1.127264,1.9027637 -9.810848,2.4371908 -4.322141,2.762833 0.06594,-1.956758 3.951133,-1.903252 4.912591,-0.754158 z"
       id="path61"
       sodipodi:nodetypes="ccccccccc" />
    <path
       style="fill:#ffef21;fill-opacity:1;stroke:none;stroke-width:1;stroke-opacity:1"
       d="M 6.7532003,22.404834 20.72963,11.117542 20.625992,13.28462 6.7532003,24.14604 Z"
       id="path54"
       sodipodi:nodetypes="ccccc" />
    <path
       style="fill:#ffef21;fill-opacity:1;stroke:none;stroke-width:1;stroke-opacity:1"
       d="m 79.28168,53.909785 c 0,0 -3.429822,7.123477 -2.94613,7.123477 0.483693,0 3.385853,4.397212 3.385853,4.397212 l 3.078045,4.661039 12.444103,8.090866 -0.131916,-2.77024 -7.255396,-4.836933 c 0,0 -3.209962,-1.934771 -3.825571,-1.934771 -0.615609,0 -3.034074,-4.221321 -3.034074,-4.221321 l -3.034076,-4.792959 z"
       id="path17"
       transform="translate(4.9248661,3.7701723)"
       sodipodi:nodetypes="cscccccsccc" />
    <path
       style="fill:#ffef21;fill-opacity:1;stroke:none;stroke-width:1;stroke-opacity:1"
       d="m 11.652604,77.390881 1.099303,1.143275 1.71368,-1.416659 2.384184,-2.559043 2.981642,-4.24708 8.00292,-7.123477 v -2.06669 l -1.626966,-7.914976 v 4.748985 l 0.791497,3.341881 -0.747525,1.71491 -6.693512,6.003296 -4.123623,4.945755 z"
       id="path16"
       sodipodi:nodetypes="cccccccccccccc"
       transform="translate(4.9248661,3.7701723)" />
    <path
       style="fill:#ff00cc;fill-opacity:1;stroke:none;stroke-width:1;stroke-opacity:1"
       d="m 96.928948,79.17061 -3.634465,-0.448178 -2.235637,-2.961881 -2.369533,-1.533722 -3.628658,-4.478683 -3.709283,-5.533251 3.358042,-10.198494 0.373115,0.06219 -2.487438,9.327888 3.58491,5.657626 3.140009,2.579801 2.347977,2.370609 5.634076,2.809951 -0.167573,1.053698 z"
       id="path18"
       sodipodi:nodetypes="ccccccccccccccc" />
    <path
       style="fill:#ff00cc;fill-opacity:1;stroke:none;stroke-width:1;stroke-opacity:1"
       d="m 18.586562,79.500749 1.8226,-1.480578 4.850503,-5.783292 7.027009,-5.721106 -0.621858,-6.653892 -1.181533,-5.347992 0.559673,-0.74623 2.549622,12.685929 -5.161431,4.663945 -3.917713,4.228642 -5.223887,5.500218 -0.585263,0.05148 z"
       id="path19"
       sodipodi:nodetypes="ccccccccccccc" />
  </g>
  <g
     inkscape:groupmode="layer"
     id="layer13"
     inkscape:label="ink yellow 2"
     style="display:inline">
    <path
       id="path74"
       style="display:inline;fill:#ffef21;fill-opacity:1;stroke:none;stroke-width:1;stroke-opacity:1"
       d="m 57.810595,12.347747 c -4.545554,0.726871 -10.567681,2.397381 -14.593098,4.630411 -5.238057,2.905723 -9.578148,5.607718 -15.247628,9.868892 -1.099311,0.826241 -1.029461,1.4805 -1.008207,2.85553 0.04451,2.879346 -0.278409,7.9484 -0.395325,11.831319 -0.284536,9.449776 0.98214,18.889549 1.029395,28.34349 0.01777,3.556008 -1.73208,7.418126 -0.280603,10.664465 1.652427,3.695778 7.868656,5.097816 11.78663,8.933161 1.638744,1.604183 3.460937,0.421318 4.209292,0.327772 0.748356,-0.09354 9.068081,0.91781 13.283197,0.374078 7.980862,-1.029498 22.973982,-4.246453 33.582677,-4.490106 6.955966,-0.159759 15.875475,2.070022 22.650575,2.774355 2.88154,0.299562 4.68557,2.545252 6.90938,0.592882 2.85908,-2.51009 0.25431,-7.608233 0.18707,-11.412224 -0.13851,-7.835832 -0.87414,-15.650105 -1.21595,-23.479703 -0.22998,-5.267926 -0.43762,-10.537371 -0.56172,-15.808854 -0.12697,-5.393197 2e-5,-12.067042 -0.18707,-16.182992 -0.18708,-4.115951 1.94119,-8.09174 -1.30948,-8.232056 -2.10849,-0.09101 -5.61143,-0.337711 -8.41913,-0.467671 -6.73257,-0.31163 -12.632507,-0.873622 -19.363583,-1.215997 -10.610053,-0.539678 -20.56593,-1.584267 -31.056422,0.09325 z m -17.11892,8.699729 c -1.376508,7.719347 -1.860985,15.50076 -2.057926,23.292773 -0.209716,8.297453 1.871049,20.673232 0.935604,24.882726 -0.935442,4.209497 2.338448,16.557129 1.496549,16.557129 -0.841899,0 -0.647349,0.360664 -1.870738,0.233851 -4.193525,-0.434687 -9.260925,-6.969179 -10.664089,-6.875633 -1.403165,0.09354 1.216058,-36.388455 0.187069,-36.575545 -1.028988,-0.187087 -2.891561,-10.102168 0.561185,-13.797721 1.733928,-1.855862 3.331868,-2.540167 5.594208,-3.940911 1.961763,-1.214639 6.057742,-5.120351 5.818138,-3.776669 z m 2.43204,6.922281 c 0.969083,-11.437864 9.59621,-11.209525 15.148992,-12.245093 20.772564,-3.873986 53.530513,0.930447 53.886853,1.019534 0.37418,0.09355 4.95797,0.187412 3.64836,6.641971 -1.30963,6.454559 -1.02917,32.272951 0.1869,41.720928 1.21608,9.447978 2.71306,20.299018 -1.02871,20.673197 -3.74178,0.374176 -18.705926,-2.31416 -27.876126,-2.151597 -8.609442,0.152622 -15.536472,2.08891 -22.54457,2.619268 -4.696049,0.355387 -13.564911,1.244812 -18.555145,0.260267 -2.295404,-0.45287 -1.86063,-1.062124 -2.164601,-3.206952 -1.278124,-9.018482 -1.624246,-12.92339 -1.362093,-20.338491 0.48993,-13.858692 -0.132733,-25.634751 0.660156,-34.993032 z"
       sodipodi:nodetypes="sssssssssssssssssssssssssssssssssssssssssssss" />
  </g>
  <g
     inkscape:groupmode="layer"
     id="layer4"
     inkscape:label="ink magenta"
     transform="translate(20.660747,6.8033483)"
     style="display:none;opacity:1"
     sodipodi:insensitive="true">
    <g
       inkscape:groupmode="layer"
       id="layer9"
       inkscape:label="bg magenta"
       transform="translate(4.9248661,3.7701723)"
       sodipodi:insensitive="true">
      <path
         style="fill:#ff00cc;fill-opacity:1;stroke:none;stroke-width:1;stroke-opacity:1"
         d="m 18.469221,48.629397 0.559673,0.12437 -0.652952,7.43122 0.435301,1.27481 -2.673995,1.399186 -1.36809,0.994973 -1.119347,0.342022 -1.989949,1.585743 -0.155465,-1.430277 5.596733,-3.948808 0.83951,-0.777322 z"
         id="path29" />
      <path
         style="fill:#ff00cc;fill-opacity:1;stroke:none;stroke-width:1;stroke-opacity:1"
         d="m 8.8925878,62.932161 0.2176507,1.399183 c 0,0 -2.0210428,1.430276 -2.1454144,1.430276 -0.1243719,0 -1.4302764,1.243719 -1.4302764,1.243719 L 3.1714823,69.212938 2.611809,68.870916 2.7361808,67.907034 6.6228015,64.797738 Z"
         id="path30" />
      <path
         style="fill:#ff00cc;fill-opacity:1;stroke:none;stroke-width:1;stroke-opacity:1"
         d="m 16.510364,10.260678 1.461369,3.109297 1.834485,1.336997 4.135364,3.295854 3.171484,3.637877 -0.994976,1.057161 -1.803392,-2.767274 -4.19755,-2.82946 -3.14039,-2.642902 -0.963881,-1.803391 z"
         id="path31" />
      <path
         style="fill:#ff00cc;fill-opacity:1;stroke:none;stroke-width:1;stroke-opacity:1"
         d="m 23.692839,24.376884 c -0.155465,0.03109 -3.637877,2.363066 -3.637877,2.363066 0,0 -0.932789,1.803392 -1.119347,1.865577 -0.186558,0.06219 -5.285804,-3.451319 -5.285804,-3.451319 l 0.217651,-1.212626 2.953832,2.30088 2.425251,0.248743 4.50848,-2.767273 z"
         id="path32" />
      <path
         style="fill:#ff00cc;fill-opacity:1;stroke:none;stroke-width:1;stroke-opacity:1"
         d="m 4.3841079,18.531407 -1.1193467,0.746231 0.4042087,0.715138 3.9798992,2.114322 2.8294599,1.772299 0.373115,-1.336998 c 0,0 -2.7983662,-2.021043 -3.6067833,-2.114321 -0.8084172,-0.09328 -2.2386936,-0.963882 -2.2386936,-0.963882 z"
         id="path33" />
      <path
         style="fill:#ff00cc;fill-opacity:1;stroke:none;stroke-width:1;stroke-opacity:1"
         d="M 86.031397,72.444021 87.74631,74.818514 84.756206,74.11496 74.62064,71.806426 67.49716,71.67451 54.085672,72.070258 c 0,0 -34.254259,-0.65958 -34.034398,-0.747525 0.21986,-0.08794 0.967386,-0.703553 0.967386,-0.703553 0,0 10.11358,-0.395751 10.28947,-0.307806 0.175887,0.08795 18.204447,0.219861 18.204447,0.219861 l 14.071068,0.527667 8.750445,-0.395751 -1.407107,-1.857819 -1.52803,-2.25357 -1.451078,-2.913153 0.83547,-0.09894 0.406741,-0.09894 0.483693,1.539023 0.857456,0.945401 c 0,0 0.934408,1.780868 0.978379,1.835836 0.04397,0.05496 1.714913,2.198602 1.714913,2.198602 0,0 0.373761,-1.330155 0.318796,-1.308168 -0.05496,0.02199 -0.109929,-1.110295 -0.08795,-1.37413 0.02199,-0.263832 0.329793,-2.121651 0.329793,-2.121651 l 0.637595,-2.407473 0.175887,-0.483693 c 0,0 1.473065,-0.461708 1.440088,-0.417734 -0.03298,0.04397 -0.967388,3.63869 -0.967388,3.63869 l -0.14291,4.023447 0.219861,0.901428 3.111026,0.263831 c 0,0 3.803587,0.802492 3.803587,0.857457 0,0.05496 3.96848,0.91242 3.96848,0.91242 z"
         id="path34"
         sodipodi:nodetypes="ccccccscsccccccccccscsscccsccccscc" />
      <path
         style="fill:#ff00cc;fill-opacity:1;stroke:none;stroke-width:1;stroke-opacity:1"
         d="m 12.810301,69.617147 0.186558,1.197078 4.368561,0.388663 0.761778,-0.901695 -1.974403,-0.186558 -2.176508,-0.186557 z"
         id="path35" />
      <path
         style="fill:#ff00cc;fill-opacity:1;stroke:none;stroke-width:1;stroke-opacity:1"
         d="m 4.1509108,68.653265 -0.8239635,0.621861 0.5441267,0.69959 3.7311557,0.233198 2.5340763,0.248743 -0.108825,-1.197078 c 0,0 -3.1870288,-0.07773 -3.7777952,-0.124373 -0.5907662,-0.04664 -2.098775,-0.481941 -2.098775,-0.481941 z"
         id="path38" />
      <path
         style="fill:#ff00cc;fill-opacity:1;stroke:none;stroke-width:1;stroke-opacity:1"
         d="m 90.8139,6.7209574 c 0.203104,-0.082413 0.512407,-0.090465 0.652952,0.077732 0.276295,0.330658 0.106364,0.9007638 -0.07773,1.2903578 -0.493686,1.0447791 -1.742823,1.5225785 -2.540974,2.3581888 -0.91432,0.957232 -2.456344,2.969378 -2.56517,3.031563 -0.108826,0.06219 -2.199813,2.09067 -3.280307,3.155936 -1.017681,1.003338 -1.591857,2.928272 -3.016019,3.04711 -0.435377,-0.506049 -1.683411,-0.720609 -2.021041,-1.212625 0.132471,-4.308084 0.860698,-4.717839 0.853368,-7.172575 -0.0023,-0.753775 -0.410277,-0.276534 -0.4958,-0.243095 -0.742458,0.290301 -0.835397,1.358416 -1.228172,2.052135 -0.541436,0.956285 -1.075487,1.918235 -1.554649,2.907193 -0.231724,0.478263 -0.179904,1.190954 -0.637405,1.461369 -0.340482,0.201249 -0.786049,-0.113554 -1.181532,-0.108826 -0.224318,0.0027 -0.565826,0.27719 -0.668498,0.07773 -0.473519,-0.919897 1.472546,-1.465715 2.083228,-2.300879 0.583905,-0.798543 0.989224,-1.713485 1.492462,-2.56517 0.322802,-0.546315 1.329977,-1.103442 0.979429,-1.632381 -1.41377,-2.1332263 -5.055546,0.820121 -7.60223,1.072708 -2.241787,0.222347 -4.504003,0.180747 -6.747174,0.388662 -2.601071,0.241088 -5.168327,0.799747 -7.773242,0.994975 -5.329191,0.399402 -10.685859,0.227911 -16.028423,0.357569 -3.161274,0.07672 -6.360419,-0.248077 -9.483352,0.248743 -1.596575,0.253995 -3.049904,1.14203 -4.6484,1.383637 -1.434791,0.216863 -2.978739,0.512498 -4.353014,0.04664 -0.5174,-0.175391 -1.402792,-0.475897 -1.290359,-1.010521 0.642782,-3.056472 5.972989,-1.989344 9.079145,-2.316426 1.418392,-0.149358 4.275283,0.108825 4.275283,0.171011 0,0.06219 14.294725,1.073793 21.391959,0.373116 2.279993,-0.225093 4.458619,-1.070337 6.71608,-1.46137 5.72542,-0.991747 11.726181,-0.55536 17.28769,-2.2386926 1.444033,-0.4370735 2.613111,-1.5700331 4.057631,-2.0054964 1.3338,-0.4020859 2.763199,-0.3572213 4.145845,-0.5274754 0.217544,-0.026788 0.43377,-0.07624 0.652952,-0.077732 0.297008,-0.00202 0.589943,0.071363 0.886148,0.093279 0.362095,0.026791 1.053006,-0.3147306 1.088255,0.046639 0.158215,1.6220244 -4.674424,1.1493348 -4.752156,1.1493348 -0.07773,0 -2.249621,0.4891298 -3.218122,1.0727074 -0.41754,0.2515919 -0.849063,0.5696889 -1.057161,1.0105212 -1.22449,2.593941 -0.755644,5.715664 -0.637405,8.581659 0.0041,0.0996 -0.02802,0.229331 0.04664,0.295383 0.112619,0.09964 0.310558,0.06969 0.450847,0.01555 0.714568,-0.275745 1.137864,-1.029906 1.647928,-1.601288 1.016087,-1.138236 2.876101,-3.62233 2.798366,-3.62233 -0.07773,0 2.650688,-2.377442 3.855529,-3.6845168 0.866807,-0.9403577 1.231526,-2.4991843 2.416598,-2.9800498 z"
         id="path39"
         sodipodi:nodetypes="ssssssssssssssssssssssssssssssssssssssssssssss" />
      <path
         style="fill:#ff00cc;fill-opacity:1;stroke:none;stroke-width:1;stroke-opacity:1"
         d="m 15.390232,15.56612 -0.285818,1.099303 2.396479,-0.703554 0.505679,-0.263832 -0.813484,-0.747526 c 0,0 -0.879442,0.527665 -0.967386,0.527665 -0.08794,0 -0.83547,0.08794 -0.83547,0.08794 z"
         id="path40" />
      <path
         style="fill:#ff00cc;fill-opacity:1;stroke:none;stroke-width:1;stroke-opacity:1"
         d="m 4.5551193,18.344849 1.2203988,1.026068 2.0443623,-0.606313 2.9382856,-0.963882 1.360317,-0.326476 0.26429,-1.204852 -3.1714824,0.909469 z"
         id="path41" />
    </g>
    <path
       style="fill:#ff00cc;fill-opacity:1;stroke:none;stroke-width:1;stroke-opacity:1"
       d="m 18.386401,82.044041 -0.520459,-7.050188 -3.272901,-19.254458 -0.194116,-3.361701 1.748736,-5.344329 1.920244,-18.121864 3.881271,-18.326311 -2.496803,0.69342 -13.0723127,10.458452 0.2154395,2.305946 4.7280732,-3.896666 3.479277,-3.057647 3.29706,-1.900776 -3.723614,23.966048 c 0,0 -2.48746,14.862437 -2.2387,14.986807 0.122363,0.06118 2.746411,14.607778 2.746411,14.607778 l 1.668779,15.490213 z"
       id="path63"
       sodipodi:nodetypes="cccccccccccccccccc" />
    <path
       style="fill:#ff00cc;fill-opacity:1;stroke:none;stroke-width:1;stroke-opacity:1"
       d="m 17.87843,81.20266 -1.373818,2.890194 8.572215,-0.839982 10.069597,0.265152 40.854649,-1.900097 24.488037,1.023849 -1.540776,-2.987056 -23.523167,-1.159359 -18.20261,0.893458 -18.605764,1.290594 z"
       id="path65"
       sodipodi:nodetypes="ccccccccccc" />
    <path
       style="fill:#ff00cc;fill-opacity:1;stroke:none;stroke-width:1;stroke-opacity:1"
       d="m 7.2249161,72.734367 0.4634976,-11.410752 -0.2147376,-7.245026 0.37312,-19.899498 -0.03331,-11.996706 -1.30591,0.373115 -0.6507393,32.238226 0.5581186,12.591691 -0.7446793,5.970809 3.7791852,3.157848 5.1078947,4.467119 2.18202,3.195385 -0.376235,-4.697893 -4.077156,-2.442063 z"
       id="path69"
       sodipodi:nodetypes="ccccccccccccccc" />
    <path
       style="fill:#ff00cc;fill-opacity:1;stroke:none;stroke-width:1;stroke-opacity:1"
       d="m 97.332323,80.196679 3.171507,2.487437 0.3489,-20.837837 -2.214484,-54.3449509 -1.927777,2.0521356 -0.136808,15.4866693 1.878025,24.06358 -0.673656,27.48725 z"
       id="path71"
       sodipodi:nodetypes="ccccccccc" />
    <path
       style="fill:#ff00cc;fill-opacity:1;stroke:none;stroke-width:1;stroke-opacity:1"
       d="m 98.653777,7.6567928 c -0.24874,0 -12.017431,-0.4042085 -12.017431,-0.4042085 l -38.43088,-3.482412 -7.77325,1.3059046 -20.64573,6.1564071 -0.07673,2.470518 19.914042,-5.3310709 10.758175,-1.3680905 24.874358,1.8033918 17.13363,1.0785993 4.880201,0.4294093 z"
       id="path73"
       sodipodi:nodetypes="cccccccccccc" />
  </g>
  <g
     inkscape:groupmode="layer"
     id="layer11"
     inkscape:label="ink magenta 2"
     transform="translate(25.585613,10.573521)"
     style="display:inline;opacity:1">
    <path
       id="path47"
       style="fill:#ff00cc;fill-opacity:1;stroke:none;stroke-width:1;stroke-opacity:1"
       d="M 49.678136,0.52641302 C 42.469371,-0.96920336 22.384163,3.5436508 17.991667,6.2177083 15.995946,7.4326602 13.055056,9.7550256 10.291354,11.544356 8.1779523,12.912656 5.8182914,13.954089 4.2427696,14.885804 3.298921,15.443967 2.6112877,15.946887 2.1725641,16.297167 1.7807873,16.609965 1.58375,17.250149 1.5774678,18.03085 1.5394251,22.758504 1.4085254,39.646032 1.4552083,42.597917 1.586188,50.880112 2.4829256,58.953892 1.1324135,67.445513 c -0.18984816,1.193709 -0.46915344,2.164319 0.8392755,3.047676 1.6604922,1.121046 6.4488656,3.856538 8.611644,5.756421 1.181812,1.038158 2.114629,1.721319 2.682972,2.388222 1.513961,1.776505 2.662288,1.669838 3.930845,1.282228 7.681233,-2.347017 30.258545,0.237374 49.379873,-3.298381 13.403442,-2.478453 25.358912,1.526315 26.50403,1.841952 3.344954,0.921993 2.899871,-1.326787 2.543961,-3.614024 C 94.84773,69.854443 93.668481,60.737552 93.211177,49.950825 93.031662,45.716492 92.030758,41.484456 92.018422,37.136785 91.990082,27.148936 93.177552,17.351094 92.971231,11.224144 92.822959,6.821015 93.499646,4.2181558 91.801015,3.9607252 90.014206,3.6899312 82.480198,3.5347389 79.28181,3.3225635 71.063282,2.7773609 56.502023,1.942178 49.678136,0.52641302 Z M 85.740813,6.5130142 c 4.369399,-0.5183713 4.43339,2.2755331 4.5681,5.6499418 0.327413,8.201481 -0.23374,24.73886 0.231972,38.507421 0.316457,9.355938 0.607794,14.528588 1.380415,18.366228 0.409416,2.033589 1.811554,6.604239 -1.818756,5.724236 -5.935541,-1.438802 -58.212973,0.124455 -69.53102,0.795056 -2.153008,0.127567 -3.505181,0.488855 -3.439753,-1.009543 0.158981,-3.640887 -0.447514,-10.960488 -1.1456,-14.916944 -1.358085,-7.697043 0.61309,-16.287715 0.328264,-24.698752 -0.479119,-14.148593 1.932962,-15.420896 2.05343,-19.870427 0.226901,-8.3806476 1.884797,-6.88038 5.895166,-8.2172942 C 27.647633,5.714631 34.452103,4.1418777 39.001824,3.4699644 45.2928,2.5408986 59.236702,3.3802034 71.836657,5.1873438 75.329792,5.6883444 81.371414,7.0313855 85.740813,6.5130142 Z M 15.679368,11.04962 c -0.469827,1.953248 -1.499411,4.064064 -1.880622,10.0885 -0.336607,5.319547 -0.638324,22.608118 -0.682963,28.299114 -0.06928,8.831902 2.116921,17.207185 2.062633,23.712809 -0.02407,2.88417 -1.789161,1.89933 -2.718217,1.037809 C 10.473663,72.34572 6.2079549,70.764229 3.8259607,70.035488 2.5510915,69.645458 2.275955,69.047789 2.3768698,67.620954 3.4120978,52.983865 3.5908491,25.441086 3.658375,19.001422 3.667635,18.118623 4.1092511,17.413234 4.5758517,17.117948 l 9.8076273,-6.2067 c 0.475125,-0.30068 1.512277,-0.761237 1.295889,0.138372 z"
       sodipodi:nodetypes="ssssssssssssssssssssszsssssssssssszsssssssssss" />
    <path
       style="fill:#ff00cc;fill-opacity:1;stroke:none;stroke-width:1;stroke-opacity:1"
       d="m 17.633107,73.315372 c -0.0981,0.693953 -0.199099,1.065684 -0.180975,1.495042 0.03525,0.835095 1.793676,0.754426 1.981703,0.258913 2.276707,-5.999856 8.054448,-8.932805 9.097186,-12.628484 0.151213,-1.147156 -0.467723,-1.426551 -0.982215,-3.578071 -0.50086,-2.094499 -0.815708,-4.086241 -0.935443,-4.723989 -0.06834,-0.363975 -1.209751,-0.868023 -1.005602,0.608037 0.154925,1.120149 0.504749,3.222474 0.856047,5.00611 1.631447,6.122769 -8.323512,9.974444 -8.830701,13.562442 z"
       id="path49"
       sodipodi:nodetypes="sssssssss" />
    <path
       style="fill:#ff00cc;fill-opacity:1;stroke:none;stroke-width:1;stroke-opacity:1"
       d="m 79.131451,53.251526 c 0.12662,-0.574227 1.055053,-0.809832 1.051283,-0.221824 -0.02328,3.631177 -1.406097,5.549778 -1.937889,6.145485 -1.061035,1.18856 -0.93334,2.19648 -0.457346,2.869604 3.329162,4.707917 13.768296,7.575233 14.214018,10.266303 0.153194,0.924919 -0.361434,2.421577 -1.22066,2.046509 -3.906126,-5.190608 -12.087838,-7.384555 -15.473827,-12.378958 -0.484561,-0.819504 0.27073,-1.045563 1.575463,-3.468525 1.367851,-2.540176 1.678294,-2.670605 2.248958,-5.258594 z"
       id="path50"
       sodipodi:nodetypes="sssssssss" />
    <path
       style="fill:#ff00cc;fill-opacity:1;stroke:none;stroke-width:1;stroke-opacity:1"
       d="m 87.838128,7.0625972 c 0.548257,-0.032641 1.499462,0.4051769 1.356394,0.9354433 -0.239601,0.888053 -1.101296,0.5165771 -2.962612,2.0708185 -4.155395,3.469851 -5.285952,5.66802 -6.202382,7.134098 -0.252514,0.403964 -0.360615,1.669504 -0.552858,1.547678 -1.163016,-0.737005 -1.762093,-0.9056 -1.538878,-1.292579 0.785266,-1.361386 0.966967,-1.16566 1.621664,-1.976469 1.04476,-1.293883 1.983678,-2.68083 3.133735,-3.88209 1.581236,-1.651635 2.862452,-4.4010119 5.144937,-4.5368998 z"
       id="path51"
       sodipodi:nodetypes="sssssssss" />
    <path
       style="fill:#ff00cc;fill-opacity:1;stroke:none;stroke-width:1;stroke-opacity:1"
       d="m 19.598226,10.23905 c -0.03654,-0.2946383 0.361927,-1.9416327 1.623369,-1.6521017 1.168655,0.2682343 0.487841,5.0397727 2.164488,7.2688167 1.512396,2.010676 4.049014,5.100244 3.578071,5.519116 -0.744206,0.661921 -0.761788,0.791842 -1.496709,1.379778 -0.379403,0.303522 -0.274002,-1.509625 -1.800728,-4.186108 -0.796601,-1.39651 -1.525512,-3.321566 -2.221678,-4.770761 -0.387871,-0.807423 -1.778589,-3.008606 -1.846813,-3.55874 z"
       id="path52"
       sodipodi:nodetypes="ssssssss" />
    <path
       style="fill:#ff00cc;fill-opacity:1;stroke:none;stroke-width:1;stroke-opacity:1"
       d="m 21.655513,25.514217 c 0.29991,0.25004 -0.0045,0.449326 -0.26894,0.736662 -0.700654,0.761451 -1.400701,1.089182 -2.104748,1.847499 -0.332079,0.357677 -0.206546,0.653425 -0.596344,0.947137 -0.07472,0.0563 -0.519062,-1.519849 -1.8475,-1.789034 -0.217838,-0.04414 0.03316,-1.750735 0.175394,-1.625333 0.631132,0.556416 1.646272,1.946544 3.110349,0.841898 0.491138,-0.370564 0.944743,-1.194883 1.531789,-0.958829 z"
       id="path57"
       sodipodi:nodetypes="ssssssss" />
    <path
       style="fill:#ff00cc;fill-opacity:1;stroke:none;stroke-width:1;stroke-opacity:1"
       d="m 18.112522,52.226971 c 0.06558,-0.355811 0.420949,-1.041573 0.631424,0.175395 0.03723,0.215249 -0.405861,3.455973 -0.116931,4.01656 1.173306,2.276467 0.07025,0.362292 -1.51359,1.851512 -0.459223,0.43179 -0.286051,0.603839 -0.72821,0.665085 -0.0797,0.01104 -0.404064,-1.685565 -0.264788,-1.768405 0.623958,-0.371123 1.033265,-0.222004 1.500987,-1.239301 0.551921,-1.723322 0.166126,-1.937748 0.491108,-3.700846 z"
       id="path58"
       sodipodi:nodetypes="ssssssss" />
    <path
       style="fill:#ff00cc;fill-opacity:1;stroke:none;stroke-width:1;stroke-opacity:1"
       d="m 13.319731,24.047392 c -0.115767,1.708846 -0.28521,1.395311 -0.538225,1.230976 -2.266145,-1.471874 -2.631015,-1.484115 -4.0619491,-2.48511 -1.3731985,-0.960606 -4.6657924,-2.466788 -4.7829063,-4.13853 -0.048995,-0.699376 0.3019005,-1.334309 1.1966436,-0.575192 0.7813568,0.662919 5.6426238,5.455564 6.6564278,5.618787 1.062346,0.171039 1.57039,-0.247004 1.530009,0.349069 z"
       id="path59"
       sodipodi:nodetypes="sssssss" />
  </g>
  <g
     inkscape:groupmode="layer"
     id="layer10"
     inkscape:label="eyes reflection"
     transform="translate(25.585613,10.573521)">
    <path
       style="fill:#ff00cc;fill-opacity:1;stroke:none;stroke-width:1.3481;stroke-opacity:1"
       d="m 26.348919,23.864032 c -0.391236,0.569153 -1.678842,1.95867 -1.85595,4.528647 -0.05637,0.818054 0.633698,0.945891 0.665984,0.01047 0.168883,-2.82253 1.653461,-3.559961 2.311822,-4.662622 0.591804,-0.991186 -0.103065,-1.358587 -1.121856,0.123507 z"
       id="path42"
       sodipodi:nodetypes="sscss" />
    <path
       style="fill:#ffef21;fill-opacity:1;stroke:none;stroke-width:1.3481;stroke-opacity:1"
       d="m 28.145442,24.118196 c 0.318715,-0.508896 -0.08652,-0.570709 -0.509442,0.04002 -0.823861,1.189768 -2.192277,2.877382 -1.878482,3.890907 0.286245,0.924515 1.064642,0.829105 1.014926,0.286096 -0.142158,-1.552728 0.24423,-2.414709 1.372998,-4.217029 z"
       id="path46"
       sodipodi:nodetypes="sssss" />
    <path
       style="fill:#ff00cc;fill-opacity:1;stroke:none;stroke-width:1.3481;stroke-opacity:1"
       d="m 82.762524,24.184038 c -0.55216,-0.606226 -1.277036,-0.185068 -0.656271,0.515436 0.603737,0.681289 0.577389,0.869396 0.562377,1.720935 -0.02966,1.682347 1.085725,1.864077 1.096375,0.538042 0.01583,-1.970915 -0.175951,-1.866953 -1.002481,-2.774413 z m -2.057549,-1.283262 c 1.365532,0.983104 1.774015,0.721007 0.914474,-0.288781 -1.821023,-2.139333 -1.879291,-0.405832 -0.914474,0.288781 z"
       id="path42-3"
       sodipodi:nodetypes="ssssssss" />
    <path
       style="fill:#ffef21;fill-opacity:1;stroke:none;stroke-width:1.3481;stroke-opacity:1"
       d="m 81.245282,26.75498 c 0,0.600462 0.754247,1.744327 0.912947,-0.545175 0.100073,-1.443703 -0.940341,-1.420313 -1.599949,-2.717945 -0.438551,-0.862751 -1.734894,-1.430725 -1.026473,0.0057 0.879963,1.784308 1.713475,1.933187 1.713475,3.257375 z"
       id="path46-5"
       sodipodi:nodetypes="ssssss" />
  </g>
</svg>
