<?xml version="1.0" encoding="UTF-8" standalone="no"?>
<!-- Created with Inkscape (http://www.inkscape.org/) -->

<svg
   width="95.765511mm"
   height="80.46859mm"
   viewBox="0 0 95.76551 80.46859"
   version="1.1"
   id="svg1"
   inkscape:export-filename="hyper-derp.png"
   inkscape:export-xdpi="96"
   inkscape:export-ydpi="96"
   inkscape:version="1.4 (e7c3feb100, 2024-10-09)"
   sodipodi:docname="hyper-derp.wo_text.svg"
   xmlns:inkscape="http://www.inkscape.org/namespaces/inkscape"
   xmlns:sodipodi="http://sodipodi.sourceforge.net/DTD/sodipodi-0.dtd"
   xmlns="http://www.w3.org/2000/svg"
   xmlns:svg="http://www.w3.org/2000/svg">
  <sodipodi:namedview
     id="namedview1"
     pagecolor="#505050"
     bordercolor="#eeeeee"
     borderopacity="1"
     inkscape:showpageshadow="0"
     inkscape:pageopacity="0"
     inkscape:pagecheckerboard="0"
     inkscape:deskcolor="#505050"
     inkscape:document-units="mm"
     inkscape:zoom="0.75213425"
     inkscape:cx="57.170645"
     inkscape:cy="227.35303"
     inkscape:window-width="2560"
     inkscape:window-height="1403"
     inkscape:window-x="0"
     inkscape:window-y="0"
     inkscape:window-maximized="1"
     inkscape:current-layer="layer1" />
  <defs
     id="defs1" />
  <g
     inkscape:label="bg"
     inkscape:groupmode="layer"
     id="layer1"
     transform="translate(-105.08646,-40.702738)" />
  <g
     inkscape:groupmode="layer"
     id="layer2"
     inkscape:label="ink"
     transform="translate(-4.9248661,-3.7701723)">
    <path
       style="fill:#ffef21;fill-opacity:1;stroke:none;stroke-width:1;stroke-opacity:1"
       d="m 7.8467761,69.18977 37.6846799,2.11432 30.84423,-1.243716 11.93969,0.435301 -2.11431,1.741204 -26.98869,0.18656 -48.50504,-1.24372 z"
       id="path59"
       sodipodi:nodetypes="cccccccc" />
    <path
       style="fill:#ff00cc;fill-opacity:1;stroke:none;stroke-width:1;stroke-opacity:1"
       d="m 7.7845861,73.169668 1.61685,0.994976 c 0,0 7.2757499,-2.73618 7.6488599,-2.61181 0.37312,0.124372 9.39009,-0.186558 9.39009,-0.186558 l 55.90514,0.808418 2.6118,0.186558 -0.93279,-0.808418 -10.38505,-0.559674 -56.02951,-0.932788 z"
       id="path74" />
    <path
       style="fill:#ffef21;fill-opacity:1;stroke:none;stroke-width:1;stroke-opacity:1"
       d="m 80.994796,24.173851 1.11934,-9.203517 1.74123,0.248744 -1.49247,9.327889 z"
       id="path13" />
    <path
       style="fill:#ececec;stroke:#373137;stroke-width:1;stroke-opacity:1"
       d="m 27.128306,70.01278 c -5.66803,-1.90524 -9.79632,-3.524956 -11.40707,-7.594233 2.3566,-25.774666 0.26827,-29.542261 0.74623,-31.466076 0,0 0.99497,-4.10427 12.18844,-8.706031 7.91373,-3.253421 -1.5276,47.76634 -1.5276,47.76634 z"
       id="path11-5"
       sodipodi:nodetypes="cccsc" />
    <path
       style="fill:#ffef21;fill-opacity:1;stroke:none;stroke-width:1;stroke-opacity:1"
       d="m 7.1627361,17.948564 c 0.87061,0.621859 13.6809199,0 13.6809199,0 0,0 8.95477,-1.492462 9.57662,-1.492462 0.62185,0 28.85427,-0.373116 28.85427,-0.373116 l 24.37688,-0.870603 -0.37312,1.243719 -20.52134,0.497487 c 0,0 -23.25754,1.119347 -25.74499,0.870603 -2.48743,-0.248744 -8.3329,-0.497487 -8.3329,-0.497487 l -7.83542,1.616834 -13.3077999,0.497487 z"
       id="path60" />
    <path
       style="fill:#f2f2f2;stroke:#373137;stroke-width:1;stroke-opacity:1"
       d="m 28.421596,22.344818 c 0,0 27.61447,-14.950511 56.63605,-2.28655 12.74714,33.718617 -1.21159,49.442216 0.032,48.825946 0.70355,-0.17589 -35.23803,10.8499 -58.25106,0.95046 -6.50787,-24.272592 1.05419,-47.313587 1.583,-47.489856 z"
       id="path8-3"
       sodipodi:nodetypes="ccccc" />
    <path
       style="fill:#f9f9f9;stroke:#110f11;stroke-width:1;stroke-opacity:1"
       d="M 46.153316,27.855674 C 33.031516,2.1540414 5.8523461,39.452918 30.855576,47.00894 c 2.14149,1.529636 16.68592,-8.016523 15.29774,-19.153266 z"
       id="path9-56"
       sodipodi:nodetypes="ccc" />
    <path
       style="fill:#110f11;fill-opacity:1;stroke:none;stroke-width:1;stroke-opacity:1"
       d="m 20.727996,30.759553 c 9.22413,11.582249 20.2451,-10.765883 6.56413,-9.663931 -2.12477,1.833637 -4.99592,4.202506 -6.56413,9.663931 z"
       id="path10-29"
       sodipodi:nodetypes="ccc" />
    <path
       style="fill:#f9f9f9;stroke:#110f11;stroke-width:1;stroke-opacity:1"
       d="m 70.135136,26.518262 c 13.1218,-25.70163304 40.300974,11.597244 15.29774,19.153266 -2.14149,1.529636 -16.68592,-8.016523 -15.29774,-19.153266 z"
       id="path9-5-1"
       sodipodi:nodetypes="ccc" />
    <path
       style="fill:#110f11;fill-opacity:1;stroke:none;stroke-width:1;stroke-opacity:1"
       d="m 95.515916,29.738787 c -0.42816,-2.868346 -3.7158,-8.450792 -7.03243,-10.240433 -14.72837,1.399572 0.65343,24.645841 7.03243,10.240433 z"
       id="path10-2-2"
       sodipodi:nodetypes="ccc" />
    <path
       style="fill:none;fill-opacity:1;stroke:#373137;stroke-width:1;stroke-opacity:1"
       d="m 58.256406,51.349456 c 0,0 -21.26759,15.297738 -7.9598,13.929648 6.70244,-0.689036 10.10222,-1.236634 11.55473,-2.143791 13.75404,-8.590063 1.00683,4.631231 1.00683,4.631231"
       id="path12-7"
       sodipodi:nodetypes="cssc" />
    <path
       style="fill:#373137;fill-opacity:1;stroke:none;stroke-width:1;stroke-opacity:1"
       d="m 56.577386,53.028475 c -1.28346,-0.154017 -1.61042,9.690096 4.74122,10.019479 -2.61665,1.119578 -13.25055,2.004393 -13.25055,2.004393 -1.67563,0.07665 -2.27869,-1.128638 -2.00009,-2.136308 2.64861,-5.574605 6.6827,-7.454602 10.50942,-9.887564 z"
       id="path25-7"
       sodipodi:nodetypes="ccccc" />
    <path
       style="fill:#ffef21;fill-opacity:1;stroke:none;stroke-width:1;stroke-opacity:1"
       d="m 24.184656,57.075776 c -0.35179,0.263832 1.81481,12.824762 1.81481,12.824762 0,0 -0.23184,1.51014 -1.63894,3.093134 -1.40711,1.582997 -4.39719,5.276652 -4.39719,5.276652 l -2.90216,3.781599 1.583,0.615609 6.85964,-8.44264 1.40085,-3.998336 -1.18412,-5.840745 c 0,0 -1.97563,-7.310035 -1.53589,-7.310035 z"
       id="path1"
       sodipodi:nodetypes="ccsccccccc" />
    <path
       style="fill:#ffef21;fill-opacity:1;stroke:none;stroke-width:1;stroke-opacity:1"
       d="m 15.744396,54.513889 -0.80841,8.27073 c 0,0 -8.2707299,9.390075 -8.0219899,9.390075 0.24874,0 0.9328,0.621858 0.9328,0.621858 l 7.7110399,-9.14133 0.12438,-1.927764 z"
       id="path2" />
    <path
       style="fill:#ffef21;fill-opacity:1;stroke:none;stroke-width:1;stroke-opacity:1"
       d="m 88.688486,61.105599 -3.17148,8.021984 c 0,0 14.47833,11.590286 13.71649,12.256878 -0.4975,0.435302 -2.36307,0 -2.05214,0.06219 0.31092,0.06218 -12.65932,-11.697205 -12.65932,-11.697205 l 0.18656,-1.492464 z"
       id="path3"
       sodipodi:nodetypes="ccssccc" />
    <path
       style="fill:#ffef21;fill-opacity:1;stroke:none;stroke-width:1;stroke-opacity:1"
       d="m 28.305966,20.560373 -7.40013,-9.01696 -1.24373,0.559674 7.52451,8.954774 z"
       id="path4" />
    <path
       style="fill:#ffef21;fill-opacity:1;stroke:none;stroke-width:1;stroke-opacity:1"
       d="m 85.641386,17.69982 10.38505,-9.7631904 0.80841,1.0571607 -10.69597,9.8253767 -1.18155,-0.497487 c 0,0 0.55968,-0.31093 0.68406,-0.62186 z"
       id="path5" />
    <path
       style="fill:#ffef21;fill-opacity:1;stroke:none;stroke-width:1;stroke-opacity:1"
       d="m 20.594896,25.908363 -4.10427,3.544598 -8.0841599,-11.690955 -0.18656,0.808417 7.8354299,12.375 0.0622,5.721106 0.4975,-6.280779 z"
       id="path6" />
    <path
       style="fill:#ffef21;fill-opacity:1;stroke:none;stroke-width:1;stroke-opacity:1"
       d="M 7.4114761,72.54781 19.226816,82.373186 17.361236,83.741277 6.0433961,73.294041 Z"
       id="path14" />
    <path
       style="fill:#ffef21;fill-opacity:1;stroke:none;stroke-width:1;stroke-opacity:1"
       d="m 16.366246,84.114393 83.751644,-1.492462 -0.994974,-1.492464 -83.12979,0.373115 z"
       id="path36"
       sodipodi:nodetypes="ccccc" />
    <path
       style="fill:#ffef21;fill-opacity:1;stroke:none;stroke-width:1;stroke-opacity:1"
       d="m 20.754836,12.663962 c 0,0 -5.45256,41.685544 -6.15611,41.685544 -0.70356,0 4.04545,28.142139 4.04545,28.142139 l -2.28656,0.879441 c 0,0 -3.51776,-28.493916 -4.22132,-28.493916 -0.70355,0 3.69366,-30.956352 3.69366,-30.956352 l 2.63832,-11.608632 z"
       id="path37" />
    <path
       style="fill:#ffef21;fill-opacity:1;stroke:none;stroke-width:1;stroke-opacity:1"
       d="m 4.9248661,70.707125 c 1.40711,-0.17589 2.11066,-52.414735 2.11066,-52.414735 h 0.70356 l 0.52765,20.578939 -0.70355,35.52945 c 0,0 -2.07947,-1.790784 -2.32821,-1.666412 -0.24874,0.124373 -0.31011,-2.027242 -0.31011,-2.027242 z"
       id="path53" />
    <path
       style="fill:#ffef21;fill-opacity:1;stroke:none;stroke-width:1;stroke-opacity:1"
       d="m 6.6652561,17.69982 c -0.87061,0 13.6808999,-6.71608 14.1783999,-6.71608 0.49747,0 0.24873,2.114322 0.24873,2.114322 L 6.6652561,19.441026 Z"
       id="path54" />
    <path
       style="fill:#ffef21;fill-opacity:1;stroke:none;stroke-width:1;stroke-opacity:1"
       d="m 20.221776,12.724946 c -0.62185,0 27.48619,-5.7211054 27.48619,-5.7211054 l 24.37688,1.4924624 24.50126,1.1193465 -0.12438,-1.1193465 -49.87311,-3.3580403 -27.3618,6.2185933 z"
       id="path55" />
    <path
       style="fill:#ffef21;fill-opacity:1;stroke:none;stroke-width:1;stroke-opacity:1"
       d="m 97.581076,8.9937903 c 0,0 0.74623,73.5037677 1.24373,73.7525107 0.49749,0.248746 1.865574,0.248746 1.865574,0.248746 L 99.695416,40.335498 99.197916,16.33173 98.824806,6.8794687 Z"
       id="path56" />
    <path
       style="fill:#ffef21;fill-opacity:1;stroke:none;stroke-width:1;stroke-opacity:1"
       d="m 95.859166,8.7944186 3.34187,-1.9347722 -1.4071,2.4624371 -15.30229,6.8596465 0.17587,-1.934772 z"
       id="path61" />
    <path
       style="fill:#ff00cc;fill-opacity:1;stroke:none;stroke-width:1;stroke-opacity:1"
       d="m 24.077316,59.302207 1.86557,10.944723 -2.17651,3.606784 -5.34797,6.405152 -0.12438,1.119346 1.3059,-0.186557 5.90767,-7.648872 1.61682,-3.544596 z"
       id="path62" />
    <path
       style="fill:#ff00cc;fill-opacity:1;stroke:none;stroke-width:1;stroke-opacity:1"
       d="m 17.858736,81.502582 -3.79336,-25.807159 -0.0622,-5.472361 1.61682,-3.233669 2.05216,-18.03392 2.67398,-17.847361 c 0,0 -2.67398,0.746231 -2.30087,0.994975 0.37312,0.248744 -11.8775199,5.907663 -11.7531499,6.094221 0.12437,0.186558 0.4353,1.492462 0.4353,1.492462 l 11.5044099,-5.161432 -3.85553,24.625629 c 0,0 -2.48746,14.862437 -2.2387,14.986807 0.24874,0.124373 4.41519,30.097991 4.41519,30.097991 z"
       id="path63" />
    <path
       style="fill:#ff00cc;fill-opacity:1;stroke:none;stroke-width:1;stroke-opacity:1"
       d="m 20.657096,14.12413 0.15544,-1.803392 0.77735,0.06218 6.68499,8.146357 -1.18155,0.62186 c 0,0 -4.81941,-6.840453 -4.97488,-6.902639 -0.15544,-0.06219 -0.99497,-0.994975 -0.99497,-0.870603 0,0.124372 -0.49749,0.777324 -0.46638,0.746232 z"
       id="path64" />
    <path
       style="fill:#ff00cc;fill-opacity:1;stroke:none;stroke-width:1;stroke-opacity:1"
       d="m 17.940616,81.700147 -1.18726,2.330521 83.766844,-1.451078 c 0,0 -2.242584,-1.802858 -2.022714,-1.758884 0.21987,0.04397 -26.25135,0.703554 -26.11943,0.65958 0.13192,-0.04397 -24.18463,0.131916 -24.18463,0.131916 z"
       id="path65" />
    <path
       style="fill:#ff00cc;fill-opacity:1;stroke:none;stroke-width:1;stroke-opacity:1"
       d="m 21.150576,67.453189 5.27666,1.846829 0.26382,0.395747 -0.39574,0.571638 z"
       id="path66" />
    <path
       style="fill:#ff00cc;fill-opacity:1;stroke:none;stroke-width:1;stroke-opacity:1"
       d="m 16.181726,53.074315 -0.13192,10.113582 -8.3546999,9.497972 -0.83546,-0.39575 1.97875,-2.242577 4.9248799,-5.89226 1.58297,-2.594353 z"
       id="path67" />
    <path
       style="fill:#ff00cc;fill-opacity:1;stroke:none;stroke-width:1;stroke-opacity:1"
       d="m 88.647736,60.901346 -4.17735,8.574559 c 0,0 2.19861,2.154634 2.63832,2.28655 0.43971,0.131916 9.23415,8.662501 9.23415,8.662501 l 3.913504,2.28655 -2.286534,-2.638327 -10.37743,-9.234138 -2.19858,-1.539023 z"
       id="path68" />
    <path
       style="fill:#ff00cc;fill-opacity:1;stroke:none;stroke-width:1;stroke-opacity:1"
       d="m 7.2249161,72.734367 0.24876,-18.655778 0.37312,-19.899498 0.18655,-14.986808 -1.30591,0.373115 -0.24874,35.135049 -0.80842,18.655779 10.7581699,10.074121 -0.37311,-3.358039 z"
       id="path69" />
    <path
       style="fill:#ff00cc;fill-opacity:1;stroke:none;stroke-width:1;stroke-opacity:1"
       d="m 8.0333461,19.192283 6.9337299,10.447236 0.21764,-1.274813 -6.2496699,-9.358981 z"
       id="path70" />
    <path
       style="fill:#ff00cc;fill-opacity:1;stroke:none;stroke-width:1;stroke-opacity:1"
       d="m 98.202926,80.321051 2.300904,2.363065 -1.865584,-75.1827879 -1.43029,2.0521356 1.24373,39.5502493 z"
       id="path71" />
    <path
       style="fill:#ff00cc;fill-opacity:1;stroke:none;stroke-width:1;stroke-opacity:1"
       d="m 97.207956,9.366906 -10.44723,9.265703 -0.8084,-0.559673 c 0,0 8.706,-8.2707285 8.95477,-8.2707285 0.24873,0 2.30086,-0.4353015 2.30086,-0.4353015 z"
       id="path72" />
    <path
       style="fill:#ff00cc;fill-opacity:1;stroke:none;stroke-width:1;stroke-opacity:1"
       d="m 97.643256,8.1231873 c -0.24874,0 -11.00691,-0.870603 -11.00691,-0.870603 l -38.43088,-3.482412 -7.77325,1.3059046 -20.64573,6.1564071 1.11935,1.305904 18.22047,-4.6017584 11.13129,-1.3680905 24.99873,1.616834 19.27765,1.3059048 z"
       id="path73" />
    <path
       style="fill:#ff00cc;fill-opacity:1;stroke:none;stroke-width:1;stroke-opacity:1"
       d="m 25.756336,23.607484 -2.36308,4.539573 0.12438,4.601758 c 0,0 0.74624,-4.228642 0.31094,-4.353015 -0.43532,-0.124373 1.92776,-4.788316 1.92776,-4.788316 z"
       id="path75" />
    <path
       style="fill:#ff00cc;fill-opacity:1;stroke:none;stroke-width:1;stroke-opacity:1"
       d="m 24.699166,32.873188 0.0622,-3.9799 0.31091,-2.176508 2.54963,-4.104271 -2.36307,4.663944 0.4975,5.410177 c 0,0 -1.11935,0.06218 -1.05717,0.186558 z"
       id="path76" />
    <path
       style="fill:#ff00cc;fill-opacity:1;stroke:none;stroke-width:1;stroke-opacity:1"
       d="m 88.626306,21.244418 1.55464,3.109297 c 0,0 2.11434,3.35804 2.11434,3.606784 0,0.248743 0.12435,5.161431 0.12435,5.161431 l 0.24876,-0.497488 0.31091,-4.539572 -2.17648,-3.855527 c 0,0 -2.67402,-2.922739 -2.17652,-2.984925 z"
       id="path77" />
    <path
       style="fill:#ff00cc;fill-opacity:1;stroke:none;stroke-width:1;stroke-opacity:1"
       d="m 90.212056,22.332672 c 0.21765,0.09328 1.83447,3.420226 1.83447,3.420226 l 1.43028,2.611808 -0.15547,3.948808 0.43532,-3.948808 -2.48745,-5.037059 z"
       id="path78" />
    <path
       style="fill:#ff00cc;fill-opacity:1;stroke:none;stroke-width:1;stroke-opacity:1"
       d="m 93.968346,9.8057767 c -0.57163,0.2638323 -12.18025,5.0567903 -11.69656,5.1887063 0.48368,0.131917 -10.06962,0.483693 -10.24549,0.703554 -0.1759,0.21986 3.69364,0.703553 3.9135,0.879442 0.21987,0.175888 5.2327,-0.219861 5.58446,-0.219861 0.35179,0 0.0879,0.527665 0.0879,0.527665 l 1.18723,0.219861 0.1759,-1.363135 c 0,0 9.32209,-4.61707 9.49796,-4.61707 0.17589,0 1.49505,-1.3191623 1.49505,-1.3191623 z"
       id="path79" />
    <path
       style="fill:#ff00cc;fill-opacity:1;stroke:none;stroke-width:1;stroke-opacity:1"
       d="m 44.103996,16.137758 -5.27664,1.539023 -10.68522,-0.439721 -2.37451,0.351777 -5.67237,1.319163 0.0879,-0.61561 10.37743,-1.802856 z"
       id="path80" />
    <path
       style="fill:#ff00cc;fill-opacity:1;stroke:none;stroke-width:1;stroke-opacity:1"
       d="m 16.929256,18.248418 -6.59583,0.04397 -1.6269499,0.703554 1.18724,0.307804 6.3319799,-0.395748 z"
       id="path81" />
    <path
       style="fill:#ffef21;fill-opacity:1;stroke:none;stroke-width:1;stroke-opacity:1"
       d="m 89.043476,22.79953 1.16528,2.858186 2.06668,2.638325 -1.71492,-2.902158 z"
       id="path82" />
    <path
       style="fill:#ffef21;fill-opacity:1;stroke:none;stroke-width:1;stroke-opacity:1"
       d="m 91.352016,27.63646 0.65958,0.769511 0.21987,4.946861 -0.59362,0.483693 0.15388,-4.661043 -0.48368,-1.319162 z"
       id="path83" />
    <path
       style="fill:#ffef21;fill-opacity:1;stroke:none;stroke-width:1;stroke-opacity:1"
       d="m 25.899556,27.042837 1.53902,-2.72627 -0.6156,3.473795 -0.39574,3.429823 -0.57166,-2.990102 z"
       id="path84" />
  </g>
  <g
     inkscape:groupmode="layer"
     id="layer3"
     inkscape:label="ink col1"
     transform="translate(-4.9248661,-3.7701723)" />
  <g
     inkscape:groupmode="layer"
     id="layer4"
     inkscape:label="ink col2"
     transform="translate(-4.9248661,-3.7701723)" />
</svg>
