<?xml version="1.0" encoding="UTF-8" standalone="no"?>
<!-- Created with Inkscape (http://www.inkscape.org/) -->

<svg
   width="208.25862"
   height="83.139321"
   viewBox="0 0 208.25862 83.139321"
   version="1.1"
   id="svg1"
   xmlns="http://www.w3.org/2000/svg"
   xmlns:svg="http://www.w3.org/2000/svg">
  <defs
     id="defs1" />
  <g
     id="layer14"
     style="display:inline"
     transform="translate(-26.52474,-9.8030187)">
    <path
       id="path76"
       style="display:inline;opacity:1;fill:#ffef21;fill-opacity:1;stroke:none;stroke-width:1;stroke-opacity:1"
       d="m 86.737763,5.9138447 -7.507035,2.993099 -11.108366,3.9057043 -18.007169,0.327112 -19.199862,1.122929 -6.010486,-0.09353 c 0,0 -0.805717,0.223764 -1.706356,0.431498 L 21.887975,7.4806741 18.847851,6.9659769 19.269013,10.567307 c 0,0 1.590066,3.321234 1.777153,3.414779 0.03719,0.01859 0.232832,0.421757 0.484725,0.963766 -1.273885,0.245544 -3.057178,0.672827 -3.057178,0.672827 l -4.910811,-0.584461 -6.3143435,0.631486 -1.7306437,0.397392 -0.1405599,0.72502 8.5126591,-0.280603 6.548437,0.561206 1.898075,-0.345715 c 1.099437,2.473172 2.498039,5.724715 2.498039,5.724715 0,0 1.122655,2.525692 1.262972,2.478919 0.140316,-0.04677 3.180685,-2.619479 3.180685,-2.619479 l -3.180685,-3.694865 -1.797306,-2.246374 6.030123,-1.097608 11.388969,-0.04702 23.830586,-1.49655 -1.519803,2.455665 2.408638,0.537434 1.637109,-2.572452 c 0,0 2.852898,-1.379356 4.349606,-1.543059 1.496711,-0.163702 11.038044,-3.4145148 11.412223,-3.4612871 0.374177,-0.046772 0.210461,1.5902681 -1.099158,2.2918501 -1.309621,0.701583 -4.723742,5.331974 -4.723742,5.331974 l -1.005624,1.847432 2.806547,1.683619 0.654741,-2.759522 c 0,0 4.09223,-4.536981 5.565552,-6.501412 1.473324,-1.9644308 4.092773,-2.665987 4.092773,-2.665987 0,0 -1.26281,-2.1745443 -1.566829,-2.1745443 -0.304017,0 -1.824179,-0.280603 -1.824179,-0.280603 z M 4.2549428,16.928676 l -1.3565063,0.09353 0.280603,2.244824 6.3613688,4.583699 5.9396887,3.040125 3.321245,2.759521 3.834908,-4.116027 -0.140043,-1.075387 -3.320728,2.15129 -4.443656,-2.80603 -4.209562,-1.450041 z M 18.427204,50.7447 l -0.608231,3.274219 -0.982369,2.478918 -4.957837,2.665987 c 0,0 -6.9223321,5.659582 -6.7820151,5.846672 0.140316,0.187089 -3.2269706,3.601046 -2.8995646,3.834908 0.327403,0.23386 2.5254272,1.075903 2.5254272,1.075903 L 4.9076162,69.52805 c 1.6688084,0.626195 4.1922727,-0.959211 6.1763668,-0.869715 1.951528,0.08803 3.848579,0.744626 5.799646,0.842326 1.059872,0.05307 2.844566,-1.147295 3.180168,-0.14056 0.358304,1.074837 -2.525397,2.011253 -2.80603,1.917713 -0.280633,-0.09355 -0.280585,5.051371 -0.467672,5.051371 -0.187089,0 3.086655,-0.888829 2.899565,-0.982369 -0.187089,-0.09355 1.434422,-2.197773 2.245341,-3.227193 0.464692,-0.589903 0.982053,-1.730388 1.496549,-1.683618 11.225187,-0.262942 22.384502,-1.401046 33.582446,-1.730644 -0.280633,-0.18709 9.75784,0.272601 12.917558,1.090373 2.328987,0.602769 2.852225,0.661671 5.159892,1.34152 3.63202,1.070014 5.294186,0.725082 8.957076,1.684135 0.717,0.187734 1.887773,1.540355 2.572453,1.824178 0.78105,0.323773 1.500488,1.0952 2.338358,0.981852 1.47432,-0.199449 3.526197,-1.271885 3.507797,-2.759522 -0.02378,-1.92687 -3.647989,-2.759187 -4.630209,-3.46077 -0.98221,-0.701582 -5.436768,-3.227001 -7.717358,-5.379 -0.88017,-0.830543 -2.093301,-1.652478 -2.245341,-2.853056 -0.28679,-2.264611 1.739923,-3.946745 2.098063,-6.201172 0.17208,-1.08321 0.666002,-3.122032 -0.393258,-3.40651 -2.52404,-0.677865 -2.702975,4.081661 -3.856095,6.426998 -0.6747,1.37227 -1.616161,1.959114 -1.146183,3.414262 0.73799,2.284953 3.608374,3.95647 5.542814,5.378999 2.20921,1.624586 8.239833,4.580356 6.969083,4.770769 -3.31214,0.496302 -7.919339,-1.052019 -15.005802,-1.809709 -0.911481,-0.09746 -1.968964,-1.012759 -2.29185,-1.870687 -0.525848,-1.397211 0.347093,-2.657021 -0.233577,-3.952213 -0.54037,-1.205305 -1.80986,-1.278955 -2.478919,-0.140044 -0.654357,1.113886 1.173721,2.1978 1.239201,4.069003 0.09234,2.638902 -9.807199,-0.665607 -12.800252,-0.599447 -5.996102,0.132537 -13.226959,1.155527 -17.773592,1.215947 -4.047125,0.05378 -6.796957,0.0048 -9.284188,-0.140044 -1.59435,-0.09284 -2.702937,-0.341558 -3.849894,-0.554488 2.040764,-1.321774 4.031222,-3.753541 3.82664,-5.900415 -0.09642,-1.011807 -1.111362,-1.749096 -2.058273,-1.37976 -0.409027,0.159538 0.350459,0.699591 0.234094,1.122928 -0.327281,1.190659 -0.956782,2.778808 -1.917712,3.554305 -0.862199,0.695819 -1.426919,1.132494 -2.530078,2.295468 -0.253944,-0.01301 -0.508722,-0.02577 -0.790649,-0.02687 C 16.953298,67.425149 9.1920723,67.241874 5.9189239,67.37986 l 0.6748943,-1.434021 3.5543048,-3.554821 7.577315,-3.367754 2.011247,-1.355989 z"
       transform="translate(25.585613,10.573521)" />
  </g>
  <g
     id="layer6"
     transform="translate(-0.93912657,0.77050234)">
    <text
       xml:space="preserve"
       style="font-weight:bold;font-size:46.4372px;font-family:'FiraCode Nerd Font';-inkscape-font-specification:'FiraCode Nerd Font Bold';text-align:start;writing-mode:lr-tb;direction:ltr;text-anchor:start;display:inline;fill:#ffef21;fill-opacity:1;stroke:none;stroke-width:1.82823;stroke-opacity:1"
       x="96.010002"
       y="77.831177"
       id="text35-8"><tspan
         id="tspan35-4"
         style="fill:#ffef21;fill-opacity:1;stroke:none;stroke-width:1.82823"
         x="96.010002"
         y="77.831177">DERP</tspan></text>
  </g>
  <g
     id="layer8"
     transform="translate(-0.93912657,0.77050234)"
     style="display:inline">
    <path
       id="path20"
       style="fill:#ff00cc;fill-opacity:1;stroke:none;stroke-width:1;stroke-opacity:1"
       d="M 98.950455,-0.77050179 C 97.820294,-0.77144162 96.685362,0.4242367 97.002253,2.198826 l 6.815607,38.167696 c 0.1882,1.053913 1.35396,0.823093 1.23145,-0.307991 l -2.20607,-20.368783 c 6.12989,-14.2576003 29.74467,-14.9910784 16.34526,21.028174 -0.61641,1.656963 -0.0964,2.309034 0.59634,1.195276 18.83329,-30.279514 -7.56796,-44.717145 -17.24856,-25.059453 L 100.89401,1.6929137 c -0.18826,-1.7381221 -1.064541,-2.46268452 -1.943555,-2.46341549 z M 178.56213,8.1162943 c -0.27929,-0.00893 -0.568,5.345e-4 -0.86609,0.029972 -14.47494,1.4294336 -4.52619,44.7898247 5.16919,25.2087977 0.85947,-1.735816 -0.17233,-2.073124 -0.63975,-1.161686 -9.69545,18.904497 -12.77665,-22.5033049 -4.43591,-22.2125984 6.70755,0.2337834 8.07539,15.5030174 -2.06344,14.7376024 -1.30941,-0.09885 -1.28698,0.98605 0.28009,1.088305 10.81256,0.705548 11.21384,-17.4136774 2.55591,-17.6903927 z m 9.08007,3.5522377 c -0.71088,-0.01714 -1.44883,0.360621 -1.53117,1.281059 -0.2377,2.657038 2.91655,23.643937 3.34191,25.421187 0.34137,1.426306 2.15701,1.36692 1.85932,-0.23306 -1.23044,-6.613263 -2.19196,-13.320712 -2.34353,-20.233907 1.98469,-2.266279 7.24612,-4.924203 10.59522,-3.541903 3.0512,1.259347 3.0558,-1.893574 0.43822,-2.428792 -2.50695,-0.512598 -8.04249,1.054836 -11.05256,4.487064 -0.006,-1.214112 0.0118,-2.433945 0.061,-3.661792 0.0264,-0.660382 -0.65751,-1.072721 -1.36839,-1.089856 z m -28.92898,2.67994 c -2.93663,0.0072 -6.00521,0.945081 -8.53178,2.923336 l 0.0274,-0.56224 c 0.12665,-2.58939 -3.04205,-3.044111 -3.16621,1.407149 l -0.86145,30.877702 c -2.13589,1.460222 -4.46176,2.965351 -7.00939,4.519621 -1.26017,0.768811 -0.69137,1.904814 0.74724,1.055233 2.22276,-1.312663 4.28396,-2.59922 6.21461,-3.862814 l -0.8501,30.465841 c -0.0476,1.706389 1.70367,1.396122 1.75907,0.264067 l 1.58492,-32.398023 C 179.28694,27.9709 169.97435,14.32092 158.71322,14.348472 Z m -1.76837,2.200899 c 9.23561,0.148071 19.42754,10.757576 -8.22844,30.664795 l 1.37563,-28.113529 c 1.5668,-1.752638 4.16816,-2.594308 6.85281,-2.551266 z m -12.34964,0.04289 c -0.81868,-0.04857 -1.83847,0.538196 -2.38796,1.950268 -2.55093,6.555277 -5.92002,12.800968 -9.82059,18.957499 -2.67971,-9.305265 -2.82966,-15.094427 -2.91559,-18.782316 -0.0548,-2.353833 -3.14541,-1.745188 -2.61172,1.554944 1.79188,11.080379 3.09848,15.137091 4.42815,18.939929 -5.20165,7.989901 -11.26645,15.861718 -17.61185,24.092587 -1.35266,1.754586 -0.43801,3.341257 0.80874,1.928047 13.92312,-15.782061 21.68737,-30.213986 30.84411,-45.70677 1.03952,-1.758811 0.3193,-2.87174 -0.73329,-2.934188 z" />
  </g>
  <g
     id="layer5"
     transform="translate(-0.93912657,0.77050234)">
    <path
       style="fill:#ececec;stroke:#373137;stroke-width:0.84134;stroke-opacity:1"
       d="m 27.876066,62.024802 c -4.768738,-1.602954 -8.242032,-2.965685 -9.597219,-6.389328 1.982701,-21.685245 0.225706,-24.855072 0.627833,-26.473654 0,0 0.837107,-3.453084 10.254616,-7.324727 6.658134,-2.737232 -1.28523,40.187709 -1.28523,40.187709 z"
       id="path11-5" />
    <path
       style="fill:#f2f2f2;stroke:#373137;stroke-width:0.84134;stroke-opacity:1"
       d="m 28.964162,21.919862 c 0,0 23.233145,-12.5784559 47.650147,-1.923765 10.724672,28.368805 -1.019359,41.59769 0.02692,41.079198 0.591924,-0.147983 -29.647148,9.12845 -49.008919,0.79966 -5.475328,-20.421491 0.886931,-39.806791 1.33184,-39.955093 z"
       id="path8-3" />
    <path
       style="fill:#f9f9f9;stroke:#110f11;stroke-width:0.84134;stroke-opacity:1"
       d="M 43.882558,26.556363 C 32.84267,4.9325636 9.9757598,36.313582 31.011965,42.670762 c 1.80172,1.286944 14.038524,-6.744617 12.870593,-16.114399 z"
       id="path9-56" />
    <path
       style="fill:#110f11;fill-opacity:1;stroke:none;stroke-width:0.84134;stroke-opacity:1"
       d="m 22.491232,28.999511 c 7.760625,9.744604 17.033003,-9.057763 5.522662,-8.130647 -1.787653,1.542711 -4.203265,3.535734 -5.522662,8.130647 z"
       id="path10-29" />
    <path
       style="fill:#f9f9f9;stroke:#110f11;stroke-width:0.84134;stroke-opacity:1"
       d="M 64.059411,25.431145 C 75.0993,3.8073456 97.966213,35.188365 76.930005,41.545545 75.128284,42.832488 62.891481,34.800927 64.059411,25.431145 Z"
       id="path9-5-1" />
    <path
       style="fill:#110f11;fill-opacity:1;stroke:none;stroke-width:0.84134;stroke-opacity:1"
       d="m 85.413265,28.1407 c -0.360228,-2.413253 -3.12625,-7.109985 -5.916662,-8.615681 -12.391559,1.177515 0.549757,20.73552 5.916662,8.615681 z"
       id="path10-2-2" />
    <path
       id="path12-7"
       style="fill:#373137;stroke-width:0.84134"
       d="m 53.819876,45.981167 c 0,0 -4.485778,3.221773 -7.600053,6.336047 -0.778569,0.778569 -1.472097,1.550405 -1.99471,2.277381 -0.522613,0.726974 -0.88786,1.401034 -0.952914,2.060856 -0.03253,0.329911 0.02341,0.666764 0.198955,0.952913 0.175537,0.286148 0.458466,0.503184 0.809769,0.649056 0.702606,0.291745 1.697014,0.351495 3.130558,0.204122 5.647187,-0.580552 8.493,-0.987905 9.900689,-1.86707 1.438296,-0.898286 2.527271,-1.506939 3.317626,-1.883089 0.751077,-0.357457 1.207865,-0.461749 1.383378,-0.468188 -0.04774,0.191838 -0.224533,0.566797 -0.51108,1.002522 -1.185868,1.803243 -3.867981,4.597652 -3.867981,4.597652 l 0.606165,0.583427 c 0,0 2.68004,-2.767841 3.963583,-4.719608 0.320886,-0.487942 0.562887,-0.910754 0.650606,-1.324467 0.04386,-0.206856 0.05565,-0.444014 -0.08527,-0.667143 -0.140909,-0.223128 -0.410658,-0.32683 -0.647505,-0.33693 -0.473694,-0.0202 -1.015579,0.173206 -1.853634,0.572058 -0.838054,0.398851 -1.946685,1.022128 -3.401343,1.930632 -0.141017,0.08807 -0.319366,0.173659 -0.530717,0.257348 -4.210861,-0.479257 -4.694246,-6.141078 -4.117578,-7.891508 1.215858,-0.946805 2.092896,-1.582849 2.092896,-1.582849 z" />
  </g>
  <g
     id="layer2"
     transform="translate(-5.8639926,-2.9996704)"
     style="display:inline" />
  <g
     id="layer13"
     style="display:inline"
     transform="translate(-26.52474,-9.8030187)">
    <path
       id="path74"
       style="display:inline;fill:#ffef21;fill-opacity:1;stroke:none;stroke-width:1;stroke-opacity:1"
       d="m 57.810595,12.347747 c -4.545554,0.726871 -10.567681,2.397381 -14.593098,4.630411 -5.238057,2.905723 -9.578148,5.607718 -15.247628,9.868892 -1.099311,0.826241 -1.029461,1.4805 -1.008207,2.85553 0.04451,2.879346 -0.278409,7.9484 -0.395325,11.831319 -0.284536,9.449776 0.98214,18.889549 1.029395,28.34349 0.01777,3.556008 -1.73208,7.418126 -0.280603,10.664465 1.652427,3.695778 7.868656,5.097816 11.78663,8.933161 1.638744,1.604183 3.460937,0.421318 4.209292,0.327772 0.748356,-0.09354 9.068081,0.91781 13.283197,0.374078 7.980862,-1.029498 22.973982,-4.246453 33.582677,-4.490106 6.955966,-0.159759 18.091365,2.665335 24.866465,3.369668 2.88154,0.299562 4.92948,2.791068 5.55339,-0.10165 0.57704,-2.675454 -0.60559,-7.509014 -0.67283,-11.313005 -0.13851,-7.835832 -0.87414,-15.650105 -1.21595,-23.479703 -0.22998,-5.267926 -0.43762,-10.537371 -0.56172,-15.808854 -0.12697,-5.393197 2e-5,-12.067042 -0.18707,-16.182992 -0.18708,-4.115951 1.94119,-8.09174 -1.30948,-8.232056 -2.10849,-0.09101 -5.61143,-0.337711 -8.41913,-0.467671 -6.73257,-0.31163 -12.632507,-0.873622 -19.363583,-1.215997 -10.610053,-0.539678 -20.56593,-1.584267 -31.056422,0.09325 z m -17.11892,8.699729 c -1.376508,7.719347 -1.860985,15.50076 -2.057926,23.292773 -0.209716,8.297453 1.871049,20.673232 0.935604,24.882726 -0.935442,4.209497 2.338448,16.557129 1.496549,16.557129 -0.841899,0 -0.647349,0.360664 -1.870738,0.233851 -4.193525,-0.434687 -9.260925,-6.969179 -10.664089,-6.875633 -1.403165,0.09354 1.216058,-36.388455 0.187069,-36.575545 -1.028988,-0.187087 -2.891561,-10.102168 0.561185,-13.797721 1.733928,-1.855862 3.331868,-2.540167 5.594208,-3.940911 1.961763,-1.214639 6.057742,-5.120351 5.818138,-3.776669 z m 2.43204,6.922281 c 0.969083,-11.437864 9.59621,-11.209525 15.148992,-12.245093 20.772564,-3.873986 53.530513,0.930447 53.886853,1.019534 0.37418,0.09355 4.95797,0.187412 3.64836,6.641971 -1.30963,6.454559 -1.02917,32.272951 0.1869,41.720928 1.21608,9.447978 2.71306,20.299018 -1.02871,20.673197 -3.74178,0.374176 -18.705926,-2.31416 -27.876126,-2.151597 -8.609442,0.152622 -15.536472,2.08891 -22.54457,2.619268 -4.696049,0.355387 -13.564911,1.244812 -18.555145,0.260267 -2.295404,-0.45287 -1.86063,-1.062124 -2.164601,-3.206952 -1.278124,-9.018482 -1.624246,-12.92339 -1.362093,-20.338491 0.48993,-13.858692 -0.132733,-25.634751 0.660156,-34.993032 z" />
  </g>
  <g
     id="layer11"
     transform="translate(-0.93912657,0.77050234)"
     style="display:inline;opacity:1">
    <path
       id="path52"
       style="display:inline;fill:#ff00cc;fill-opacity:1;stroke:none;stroke-width:1;stroke-opacity:1"
       d="M 46.427046,0.23202099 C 37.693248,0.13042273 21.835006,3.8779018 17.991572,6.2177021 15.995851,7.432654 13.054969,9.755178 10.291267,11.544509 8.177865,12.912809 5.8180623,13.954192 4.2425405,14.885907 3.2986919,15.44407 2.6111062,15.94691 2.1723826,16.29719 1.7806058,16.609988 1.5838691,17.250234 1.5775869,18.030935 1.5395442,22.758589 1.4084308,39.646025 1.4551137,42.59791 c 0.1309797,8.282195 1.0280512,16.355958 -0.3224609,24.847579 -0.18984819,1.193709 -0.46920359,2.164519 0.8392252,3.047876 1.6604922,1.121046 6.4485817,3.856355 8.611361,5.756238 1.181812,1.038158 2.114697,1.721582 2.68304,2.388485 1.513961,1.776505 2.662469,1.669702 3.931026,1.282092 7.681233,-2.347017 30.258604,0.237248 49.379932,-3.298507 13.403442,-2.478453 25.358691,1.526112 26.503809,1.841749 3.344954,0.921993 2.89994,-1.326496 2.54403,-3.613733 C 94.847792,69.854525 93.668574,60.737677 93.21127,49.95095 93.031755,45.716617 92.030914,41.484416 92.018578,37.136745 91.990238,27.148896 93.177296,17.351065 92.970975,11.224115 92.822703,6.8209857 93.499651,4.2179062 91.80102,3.9604756 90.014211,3.6896816 82.480276,3.5349638 79.281888,3.3227884 71.06336,2.7775858 56.501897,1.9423416 49.67801,0.52657666 48.776914,0.33962461 47.674731,0.24653503 46.427046,0.23202099 Z M 45.014212,3.0923115 c 7.166351,-0.071185 17.372686,0.7396073 26.822652,2.0949626 3.493135,0.5010006 9.534662,1.8438718 13.904061,1.3255005 4.369399,-0.5183713 4.433487,2.2758918 4.568197,5.6503014 0.327413,8.201481 -0.234202,24.738649 0.23151,38.50721 0.316457,9.355938 0.608173,14.528681 1.380794,18.366321 0.409416,2.033589 1.8113,6.604201 -1.81901,5.724198 -5.935541,-1.438802 -58.212593,0.124699 -69.53064,0.7953 -2.153008,0.127567 -3.505528,0.488641 -3.4401,-1.009757 C 17.290657,70.905461 16.684096,63.585885 15.98601,59.629429 14.627925,51.932386 16.599498,43.341715 16.314672,34.930678 15.835553,20.782085 18.247308,19.509587 18.367776,15.060056 18.594677,6.6794099 20.252655,8.1799012 24.263024,6.842987 27.647626,5.7146812 34.451938,4.1419795 39.001659,3.4700662 40.574403,3.2377998 42.625428,3.11604 45.014212,3.0923115 Z m 41.178365,3.8101034 c -1.3807,0.201672 -12.037042,3.8863921 -13.808459,4.5599281 -1.394596,0.53026 -2.408261,0.901354 -4.119129,1.083138 -1.859001,0.197523 -2.273478,0.08997 -12.572359,0.814421 -4.148091,-0.02826 -20.299684,1.083329 -24.430033,1.467611 -1.51295,0.140763 -2.6242,-1.1789 -6.626986,-0.286288 -0.424281,0.09461 -0.890373,0.08958 -0.877983,0.532267 0.01612,0.575813 0.623484,1.235018 0.854729,1.114661 3.115635,-1.621608 5.395328,-0.244725 17.900716,-1.30328 10.210871,-0.864329 11.792184,-0.661172 22.022428,-1.25367 1.681356,-0.09738 2.606092,-0.233862 0.433049,1.465027 -0.416599,0.325698 1.649733,1.003008 1.875854,0.548287 0.686726,-1.380982 0.934644,-1.868353 2.262911,-2.332674 2.724188,-0.952292 13.573742,-4.5917085 15.125692,-4.7991905 0.50069,-0.066938 2.49744,-1.6887976 1.95957,-1.6102376 z m 1.752865,0.1596801 c -0.03705,-0.00154 -0.07322,-0.00152 -0.107487,5.168e-4 -2.282485,0.1358879 -3.56367,2.8850386 -5.144906,4.5366742 -1.150057,1.20126 -2.088899,2.588567 -3.133659,3.88245 -0.654697,0.810809 -0.83634,0.614721 -1.621606,1.976107 -0.223215,0.386979 0.375908,0.555939 1.538924,1.292944 0.192243,0.121826 0.300424,-1.143745 0.552938,-1.547709 0.91643,-1.466078 2.04681,-3.664597 6.202205,-7.134448 C 88.093167,8.5143883 88.95486,8.8860082 89.194461,7.9979552 89.328587,7.5008305 88.50117,7.0852417 87.945442,7.062095 Z M 20.88907,8.5539936 c -0.999953,0.040474 -1.323992,1.4181526 -1.290878,1.6851684 0.06822,0.550134 1.459045,2.751016 1.846916,3.558439 0.696166,1.449195 1.424969,3.374258 2.22157,4.770768 1.526726,2.676483 1.421521,4.48983 1.800924,4.186308 0.734921,-0.587936 0.752343,-0.71784 1.496549,-1.379761 0.470943,-0.418872 -2.06568,-3.508366 -3.578076,-5.519042 C 21.709428,13.62683 22.390004,8.8553009 21.221349,8.5870666 21.103089,8.559923 20.992513,8.5498066 20.88907,8.5539936 Z M 15.290962,10.5301 c 0.29163,-0.04027 0.4968,0.06954 0.388606,0.519349 -0.469827,1.953248 -1.499811,4.064353 -1.881022,10.088789 -0.336607,5.319547 -0.638006,22.608052 -0.682645,28.299048 -0.06928,8.831902 2.116694,17.207141 2.062406,23.712765 -0.02407,2.88417 -1.789124,1.899184 -2.71818,1.037663 C 10.473591,72.345582 6.2080226,70.764253 3.8260284,70.035512 2.5511592,69.645482 2.2761065,69.048024 2.3770213,67.621189 3.4122493,52.9841 3.5910709,25.441082 3.6585968,19.001418 c 0.00926,-0.882799 0.4506561,-1.58832 0.9172567,-1.883606 l 9.8076705,-6.20634 c 0.237562,-0.15034 0.615808,-0.341098 0.907438,-0.381372 z m -1.509986,4.510319 c -0.01468,-4e-5 -0.03033,9.39e-4 -0.04754,0.0031 -2.249409,0.282776 -4.8811541,0.572386 -5.6787231,0.685746 -0.490464,0.06971 -0.8540809,0.325263 -1.2392009,0.605131 -0.868012,0.630787 -0.1868771,0.311345 0.7699789,0.235645 1.332671,-0.10544 2.1103548,-0.320302 4.0498821,-0.275952 1.010807,0.02311 1.804371,0.448817 1.841231,0.07235 0.02869,-0.292965 0.759544,-1.324771 0.304374,-1.326018 z m 7.794357,0.116789 c -0.272576,-0.008 -0.941632,0.331373 -1.388546,0.453202 -0.487179,0.132811 -0.91937,0.144908 -1.469161,-0.04237 -0.202179,-0.06887 -0.238053,1.089227 0.02532,1.205611 0.686562,0.303386 1.662694,0.183121 3.272669,-0.332796 0.150994,-0.04839 -0.436657,-0.56797 -0.322461,-1.138949 0.02016,-0.100801 -0.02696,-0.142013 -0.117822,-0.144694 z M 4.4492462,17.735862 c -0.3911164,-0.01215 -0.5463143,0.437986 -0.5126302,0.918807 0.1171139,1.671742 3.4099721,3.17816 4.7831706,4.138766 1.4309344,1.000995 1.7956224,1.013245 4.0617674,2.485119 0.253015,0.164335 0.422185,0.477914 0.537952,-1.230932 0.04038,-0.596073 -0.467277,-0.178294 -1.529623,-0.349333 C 10.776079,23.535066 5.914799,18.742429 5.1334422,18.07951 4.853835,17.842286 4.6270264,17.741387 4.4492462,17.735862 Z m 75.8873578,3.843176 c -0.457099,-0.0375 -0.264708,0.866044 0.368453,1.321884 1.365532,0.983104 1.773697,0.720916 0.914156,-0.288872 -0.625977,-0.735395 -1.043177,-1.013367 -1.282609,-1.033012 z M 27.46903,22.8725 c -0.23605,0.0082 -0.642787,0.296939 -1.120345,0.99167 -0.391236,0.569153 -1.678593,1.958429 -1.855701,4.528406 -0.05637,0.818054 0.633823,0.945756 0.666109,0.01034 0.168883,-2.82253 1.653126,-3.559586 2.311487,-4.662247 0.314396,-0.526568 0.265972,-0.877469 -0.0016,-0.868164 z m 54.724308,1.020092 c -0.322538,0.0077 -0.49471,0.346964 -0.08733,0.806669 0.603737,0.681289 0.577768,0.869803 0.562756,1.721342 -0.02966,1.682347 1.085407,1.863987 1.096057,0.537952 0.01583,-1.970915 -0.175992,-1.867048 -1.002522,-2.774508 -0.189805,-0.20839 -0.400009,-0.29548 -0.568958,-0.291455 z m -60.751847,1.579749 c -0.486813,0.0047 -0.888004,0.676212 -1.317749,1.000456 -1.464077,1.104646 -2.479273,-0.285394 -3.110405,-0.84181 -0.142234,-0.125402 -0.393021,1.581601 -0.175183,1.625741 1.328438,0.269185 1.772713,1.845338 1.847433,1.789038 0.389798,-0.293712 0.264267,-0.589552 0.596346,-0.947229 0.704047,-0.758317 1.404127,-1.085981 2.104781,-1.847432 0.26444,-0.287336 0.568627,-0.486866 0.268717,-0.736906 -0.07338,-0.02951 -0.144396,-0.04253 -0.21394,-0.04186 z m -3.020488,26.238192 c -0.142906,0.01157 -0.271619,0.316103 -0.308508,0.516247 -0.324982,1.763098 0.061,1.977744 -0.490926,3.701066 -0.467722,1.017297 -0.877243,0.868078 -1.501201,1.239201 -0.139276,0.08284 0.185401,1.779408 0.265101,1.768368 0.442159,-0.06125 0.268897,-0.233286 0.72812,-0.665076 1.58384,-1.48922 2.686909,0.4249 1.513603,-1.851567 -0.28893,-0.560587 0.154019,-3.801043 0.116789,-4.016292 -0.09208,-0.532424 -0.211828,-0.700948 -0.322978,-0.691947 z m 61.376616,0.979785 c -0.270004,0.0224 -0.594886,0.238203 -0.66611,0.561206 -0.570664,2.587989 -0.881107,2.718418 -2.248958,5.258594 -1.304733,2.422962 -2.060175,2.649018 -1.575614,3.468522 3.385989,4.994403 11.567865,7.188481 15.473991,12.379089 0.859226,0.375068 1.373791,-1.121468 1.220597,-2.046387 -0.445722,-2.69107 -10.884958,-5.55864 -14.21412,-10.266557 -0.475994,-0.673124 -0.603698,-1.681032 0.457337,-2.869592 0.531792,-0.595707 1.914586,-2.514184 1.937866,-6.145361 0.0016,-0.257254 -0.174987,-0.356937 -0.384989,-0.339514 z m -53.789482,1.062467 c -0.268377,0.013 -0.502567,0.256225 -0.400492,0.994255 0.154925,1.120149 0.50498,3.22226 0.856278,5.005896 1.631447,6.122769 -8.323796,9.974481 -8.830985,13.562479 -0.0981,0.693953 -0.198992,1.065642 -0.180868,1.495 0.03525,0.835095 1.793764,0.754411 1.981791,0.258898 2.276707,-5.999856 8.054381,-8.933007 9.097119,-12.628686 0.151213,-1.147156 -0.467877,-1.426556 -0.982369,-3.578076 -0.50086,-2.094499 -0.815608,-4.085995 -0.935343,-4.723743 -0.03417,-0.181987 -0.336754,-0.399021 -0.605131,-0.386023 z m -12.921175,5.102531 c -0.08827,0.0027 -0.204557,0.05198 -0.366903,0.118339 -1.984669,0.811168 -4.372068,3.365278 -5.8378864,4.787822 -0.8146588,0.790608 -2.6967742,3.330828 -3.7827148,4.273641 -0.6386076,0.554439 -0.5538786,1.21313 -0.1059367,1.22163 0.6488672,0.01226 -0.2180736,-0.656118 1.4278198,-1.273307 1.0492862,-0.393469 1.8667423,-2.612904 3.4235637,-4.322217 1.8113703,-1.988794 3.7483744,-2.263169 5.1304364,-2.85719 0.635008,-0.272931 0.561228,-0.475826 0.482658,-0.979785 -0.117858,-0.755928 -0.176836,-0.974885 -0.371037,-0.968933 z m 55.486536,4.862236 c -0.117347,0.01528 -0.783218,0.169862 -1.034563,0.293005 -0.117725,0.05768 -0.481909,0.0058 -0.490409,0.0832 -0.109479,0.992659 1.271715,2.690749 0.72347,3.507796 -0.404443,0.602739 -10.553254,0.04771 -11.102165,0.05271 -2.480819,0.02274 -7.874566,-1.075842 -18.269686,0.773596 -4.942645,0.879386 -10.959418,-0.310591 -13.515454,-0.04547 -0.507028,0.05259 -1.674589,1.452625 -1.534273,1.452625 0.140317,0 15.493698,-0.261222 16.03158,-0.307992 0.537879,-0.04677 6.338819,-0.455037 9.05216,-0.818038 5.117551,-0.684644 11.633382,0.517881 13.019877,0.464571 4.592784,-0.176596 6.642003,-0.596091 9.296591,0.943612 3.396938,1.970278 9.950905,2.861983 13.821895,3.522782 1.42934,0.243997 5.058791,0.805352 4.661731,0.428398 -0.97528,-0.92589 -1.32291,-2.054427 -2.57607,-2.083077 -2.60771,-0.05962 -14.369382,-2.333812 -14.887464,-2.478402 -0.273464,-0.07632 -2.713007,-1.481084 -2.473234,-2.422074 0.162941,-0.639449 0.08188,-1.849919 0.113172,-2.428792 0.02454,-0.453993 0.327268,-0.854221 -0.04238,-0.886251 -0.195354,-0.01693 -0.616913,-0.07535 -0.794783,-0.05219 z M 9.6039703,67.950368 c -0.3940904,0.0029 -0.8123333,0.01217 -1.326534,0.02997 -1.2189397,0.04219 -3.6483561,0.280604 -3.6483561,0.280604 -0.69069,0.05313 -1.0098216,0.381912 -1.0862386,0.853177 -0.05994,0.369647 1.1677335,0.02143 4.5242716,-0.268717 4.4118328,-0.38137 4.2219148,0.03792 6.5649738,0.165365 0.24265,0.0132 0.0034,-0.98132 -0.180867,-0.98392 -2.698825,-0.03793 -3.664978,-0.08519 -4.8472497,-0.07648 z m 9.3332807,0.09405 c -0.867876,-0.0042 -1.672179,0.06269 -1.650029,0.176734 0.08498,0.43747 0.09211,0.806793 0.12299,1.286226 0.01322,0.205266 2.05002,-0.427667 2.764173,-0.109037 0.126559,0.05647 0.969991,-0.977798 0.7953,-1.104842 -0.233037,-0.1695 -1.164559,-0.244847 -2.032434,-0.249081 z" />
  </g>
  <g
     id="layer10"
     transform="translate(-0.93912657,0.77050234)">
    <path
       id="path46"
       style="fill:#ffef21;fill-opacity:1;stroke:none;stroke-width:1.3481;stroke-opacity:1"
       d="m 79.513398,22.619802 c -0.217803,0.0043 -0.29133,0.249546 0.0186,0.877982 0.879963,1.784308 1.713073,1.932978 1.713073,3.257166 0,0.600462 0.754423,1.744316 0.913123,-0.545186 C 82.258267,24.766061 81.2179,24.789732 80.558292,23.4921 80.311607,23.006802 79.793427,22.614285 79.513394,22.619802 Z m -51.344669,1.098641 c -0.114335,-0.0027 -0.321323,0.134402 -0.532784,0.439766 -0.823861,1.189768 -2.192234,2.877194 -1.878439,3.890719 0.286245,0.924515 1.064641,0.829296 1.014925,0.286287 -0.142158,-1.552728 0.244275,-2.414477 1.373043,-4.216797 0.159358,-0.254448 0.137589,-0.397251 0.02325,-0.399975 z" />
  </g>
</svg>
